<svg xmlns="http://www.w3.org/2000/svg" xmlns:xlink="http://www.w3.org/1999/xlink" width="500" zoomAndPan="magnify" viewBox="0 0 375 374.999991" height="500" preserveAspectRatio="xMidYMid meet" version="1.0"><defs><g/><clipPath id="af84a7b59e"><path d="M 110 180 L 315 180 L 315 262 L 110 262 Z M 110 180 " clip-rule="nonzero"/></clipPath><clipPath id="81fbdbef54"><path d="M 105.355469 195.15625 L 314.933594 180.339844 L 319.609375 246.496094 L 110.03125 261.3125 Z M 105.355469 195.15625 " clip-rule="nonzero"/></clipPath><clipPath id="0762a9b25e"><path d="M 120.121094 194.109375 L 314.847656 180.34375 L 304.753906 247.546875 L 110.03125 261.3125 Z M 120.121094 194.109375 " clip-rule="nonzero"/></clipPath><clipPath id="666bbf6095"><path d="M 60 118 L 257 118 L 257 199 L 60 199 Z M 60 118 " clip-rule="nonzero"/></clipPath><clipPath id="d534f00a71"><path d="M 55.476562 132.414062 L 256.269531 118.21875 L 260.945312 184.375 L 60.152344 198.570312 Z M 55.476562 132.414062 " clip-rule="nonzero"/></clipPath><clipPath id="0a65e088a9"><path d="M 70.246094 131.371094 L 256.265625 118.21875 L 246.175781 185.417969 L 60.152344 198.570312 Z M 70.246094 131.371094 " clip-rule="nonzero"/></clipPath></defs><g clip-path="url(#af84a7b59e)"><g clip-path="url(#81fbdbef54)"><g clip-path="url(#0762a9b25e)"><path fill="#ffffff" d="M 105.355469 195.15625 L 314.933594 180.339844 L 319.609375 246.496094 L 110.03125 261.3125 Z M 105.355469 195.15625 " fill-opacity="1" fill-rule="nonzero"/></g></g></g><g clip-path="url(#666bbf6095)"><g clip-path="url(#d534f00a71)"><g clip-path="url(#0a65e088a9)"><path fill="#ffca0f" d="M 55.476562 132.414062 L 256.269531 118.21875 L 260.945312 184.375 L 60.152344 198.570312 Z M 55.476562 132.414062 " fill-opacity="1" fill-rule="nonzero"/></g></g></g><g fill="#1e1919" fill-opacity="1"><g transform="translate(139.107688, 235.962538)"><g><path d="M 20.59375 -2.195312 C 21.804688 -3.726562 22.074219 -4.417969 22.527344 -5.285156 C 22.757812 -5.65625 22.832031 -5.984375 23 -6.347656 L 23.203125 -6.617188 C 23.292969 -6.722656 23.65625 -7.519531 24.046875 -8.347656 L 24.445312 -9.5 C 24.378906 -9.5625 24.203125 -9.742188 24.082031 -9.667969 L 23.839844 -9.457031 C 23.691406 -9.253906 23.582031 -9.023438 23.40625 -8.785156 L 22.953125 -7.917969 C 22.804688 -7.746094 22.304688 -7.070312 22.25 -6.9375 C 22.113281 -6.605469 21.941406 -6.304688 21.742188 -5.96875 L 21.457031 -5.4375 C 21.460938 -5.402344 21.425781 -5.402344 21.398438 -5.367188 C 21.339844 -5.265625 21.289062 -5.101562 21.324219 -5.039062 L 21.15625 -4.707031 C 21.097656 -4.605469 20.949219 -4.4375 20.953125 -4.371094 C 20.894531 -4.304688 20.835938 -4.203125 20.746094 -4.132812 C 20.34375 -3.460938 20.078125 -3.152344 19.542969 -2.539062 L 18.378906 -1.300781 C 18.445312 -1.691406 18.484375 -2.078125 18.484375 -2.496094 L 18.539062 -3.109375 C 18.644531 -3.886719 18.710938 -4.757812 18.710938 -5.660156 C 18.707031 -6.621094 18.722656 -7.78125 18.859375 -9.011719 L 18.890625 -9.011719 C 18.96875 -9.757812 18.964844 -9.820312 18.804688 -10.257812 C 18.800781 -10.742188 18.621094 -11.015625 18.390625 -11.128906 L 18.089844 -11.269531 C 17.992188 -11.292969 17.921875 -11.351562 17.824219 -11.410156 C 17.683594 -11.5625 17.542969 -11.742188 17.375 -11.828125 C 17.273438 -11.917969 17.171875 -12.007812 17.039062 -12.0625 C 16.933594 -12.183594 16.800781 -12.238281 16.636719 -12.289062 C 16.441406 -12.308594 16.25 -12.328125 16.058594 -12.3125 C 15.898438 -12.300781 15.765625 -12.355469 15.574219 -12.34375 L 14.894531 -12.390625 L 14.507812 -11.976562 L 13.894531 -11.101562 C 13.699219 -10.699219 13.59375 -10.371094 13.511719 -9.691406 L 13.371094 -8.941406 C 13.242188 -8.484375 13.023438 -7.953125 12.746094 -7.324219 L 12.089844 -5.738281 L 11.21875 -3.972656 L 10.214844 -2.265625 C 9.894531 -1.792969 9.664062 -1.421875 9.457031 -1.183594 C 9.214844 -0.972656 9.027344 -0.863281 8.867188 -0.882812 C 8.449219 -0.886719 8.109375 -1.152344 7.746094 -1.734375 C 7.371094 -2.03125 7.21875 -2.375 7.113281 -2.527344 L 6.820312 -3.46875 C 6.824219 -3.4375 6.792969 -3.433594 6.785156 -3.5 L 6.753906 -3.496094 C 6.753906 -3.527344 6.75 -3.5625 6.78125 -3.59375 L 6.808594 -3.628906 C 6.65625 -4.003906 6.5625 -4.382812 6.507812 -4.730469 C 6.382812 -5.109375 6.257812 -5.515625 6.222656 -6.027344 L 6.3125 -6.097656 C 6.410156 -6.105469 6.160156 -6.441406 6.046875 -6.722656 C 5.976562 -6.78125 5.9375 -6.90625 5.929688 -6.972656 C 5.925781 -7.035156 5.949219 -7.164062 5.9375 -7.324219 C 5.835938 -7.382812 5.804688 -7.863281 5.800781 -8.34375 C 5.65625 -10.390625 5.796875 -12.039062 6.21875 -13.800781 L 7.1875 -17.820312 C 7.296875 -18.117188 7.371094 -18.410156 7.507812 -18.742188 C 7.503906 -18.808594 7.53125 -18.871094 7.558594 -18.9375 C 7.757812 -19.273438 7.914062 -19.800781 8.132812 -20.328125 C 8.324219 -20.824219 8.808594 -21.726562 9.128906 -22.164062 L 9.304688 -22.402344 C 9.59375 -22.875 9.886719 -23.246094 10.0625 -23.484375 C 10.277344 -23.660156 10.574219 -24.003906 10.808594 -24.308594 C 11.375 -24.925781 11.5625 -25.003906 12.351562 -25.21875 C 12.476562 -25.230469 12.601562 -25.269531 12.699219 -25.277344 C 13.019531 -25.300781 13.21875 -25.21875 13.515625 -25.078125 C 13.882812 -24.878906 14.394531 -24.464844 14.644531 -24.128906 C 14.679688 -24.066406 14.714844 -24.007812 14.6875 -23.972656 L 14.96875 -23.605469 C 15.070312 -23.515625 15.148438 -23.363281 15.191406 -23.171875 C 15.203125 -23.011719 15.183594 -22.820312 15.160156 -22.71875 C 15.246094 -22.4375 15.230469 -22.179688 15.21875 -21.921875 C 15.253906 -21.828125 15.195312 -21.308594 15.148438 -21.050781 C 15.066406 -20.882812 15.011719 -20.71875 14.988281 -20.589844 C 14.996094 -20.492188 14.90625 -20.390625 14.851562 -20.289062 C 14.761719 -20.1875 14.765625 -20.125 14.800781 -20.09375 C 14.871094 -20.003906 15.003906 -19.945312 15.226562 -19.964844 C 15.386719 -19.972656 15.511719 -20.015625 15.667969 -20.089844 C 16.511719 -20.4375 16.78125 -21.132812 16.851562 -21.972656 L 16.789062 -22.867188 C 16.691406 -23.34375 16.558594 -23.847656 16.398438 -24.285156 C 16.261719 -25.304688 15.9375 -25.796875 15.363281 -26.234375 C 15.296875 -26.261719 15.257812 -26.324219 15.160156 -26.351562 C 13.578125 -27.363281 11.425781 -27.371094 9.605469 -27.242188 C 8.871094 -27.191406 8.207031 -27.015625 7.683594 -26.722656 C 7.617188 -26.714844 7.589844 -26.683594 7.5625 -26.617188 C 7.53125 -26.613281 7.46875 -26.578125 7.4375 -26.542969 C 5.507812 -25.667969 4.691406 -24.484375 3.628906 -22.707031 C 3.574219 -22.574219 3.484375 -22.472656 3.421875 -22.46875 L 3.074219 -21.960938 L 3.078125 -21.867188 C 3.085938 -21.769531 2.914062 -21.46875 2.8125 -21.109375 C 2.40625 -20.503906 2.089844 -19.515625 1.8125 -18.886719 C 1.648438 -18.488281 1.519531 -18.03125 1.351562 -17.695312 C 1.355469 -17.632812 1.1875 -17.300781 1.121094 -16.878906 C 0.820312 -16.085938 0.339844 -14.734375 0.207031 -13.890625 C 0.25 -13.734375 0.121094 -13.304688 0.0234375 -12.851562 C -0.226562 -11.835938 -0.359375 -10.058594 -0.410156 -8.964844 C -0.46875 -7.996094 -0.484375 -7.289062 -0.351562 -6.335938 C -0.210938 -4.351562 0.0664062 -2.222656 1.152344 -0.53125 C 1.425781 -0.292969 1.628906 -0.113281 1.894531 -0.00390625 C 2.554688 0.6875 2.9375 1.109375 4.269531 1.335938 C 5.117188 1.5 5.925781 1.574219 6.597656 1.523438 C 6.949219 1.5 7.265625 1.445312 7.515625 1.363281 L 8.628906 1.1875 C 8.691406 1.152344 8.78125 1.082031 8.90625 1.039062 C 9.1875 0.925781 9.492188 0.679688 9.734375 0.5 L 9.828125 0.429688 C 9.855469 0.363281 9.980469 0.324219 10.039062 0.253906 L 10.554688 -0.199219 C 10.820312 -0.539062 11.738281 -1.632812 11.777344 -1.957031 L 13.382812 -3.773438 C 13.421875 -3.679688 13.417969 -3.292969 13.375 -2.070312 C 13.261719 -0.488281 13.148438 1.0625 13.027344 2.097656 L 12.777344 4.011719 C 12.417969 4.359375 12.152344 4.699219 11.855469 5.039062 L 11.3125 5.558594 C 10.777344 6.175781 10.308594 6.789062 9.960938 7.324219 L 9.464844 8.035156 L 9.257812 8.273438 C 8.96875 8.714844 8.773438 9.144531 8.578125 9.574219 C 7.914062 10.617188 7.324219 11.816406 7.351562 12.230469 C 7.355469 12.265625 7.363281 12.390625 7.308594 12.492188 C 7.246094 12.558594 7.261719 12.753906 7.277344 12.976562 C 7.265625 13.265625 7.289062 13.617188 7.367188 13.804688 C 7.402344 14.316406 7.632812 14.847656 7.949219 15.207031 C 8.085938 15.328125 8.324219 15.535156 8.402344 15.691406 C 9.011719 16.160156 9.757812 16.269531 10.523438 16.214844 C 10.996094 16.085938 11.464844 15.859375 12.082031 15.496094 C 12.234375 15.386719 12.324219 15.285156 12.445312 15.210938 C 12.601562 15.136719 12.851562 15.054688 13.035156 14.914062 C 13.378906 14.761719 13.949219 14.207031 14.484375 13.589844 L 14.804688 13.148438 C 16.152344 10.871094 17.585938 7.042969 17.757812 4.492188 C 17.835938 4.199219 18.117188 2.316406 18.121094 1.449219 L 18.195312 0.671875 L 19.804688 -1.109375 Z M 8.890625 11.289062 C 8.992188 10.894531 9.125 10.5 9.378906 10 L 9.746094 9.300781 C 9.945312 8.902344 10.203125 8.496094 10.472656 8.1875 C 10.621094 8.050781 10.738281 7.847656 10.730469 7.785156 C 10.722656 7.625 10.929688 7.417969 11.234375 7.171875 C 11.386719 7.03125 12.183594 6.042969 12.167969 5.851562 L 12.46875 5.542969 C 12.464844 5.511719 12.5 5.507812 12.496094 5.476562 L 12.503906 5.570312 L 12.605469 5.660156 L 12.476562 6.539062 C 12.371094 7.316406 12.171875 8.164062 12.03125 8.914062 L 11.734375 10.15625 C 11.5 10.941406 11.320312 11.535156 11.066406 12.035156 L 10.945312 12.171875 C 10.746094 12.539062 10.605469 12.804688 10.457031 12.976562 C 10.335938 13.082031 10.246094 13.152344 10.179688 13.15625 C 10.117188 13.160156 10.085938 13.164062 10.050781 13.132812 C 9.984375 13.105469 9.949219 13.074219 9.886719 13.082031 C 9.855469 13.082031 9.824219 13.117188 9.894531 13.175781 C 9.996094 13.296875 9.96875 13.363281 9.777344 13.378906 C 9.617188 13.386719 9.519531 13.332031 9.480469 13.238281 C 9.421875 13.304688 9.269531 13.445312 9.171875 13.453125 C 9.144531 13.488281 9.144531 13.519531 9.113281 13.519531 C 9.082031 13.523438 9.015625 13.464844 8.910156 13.375 L 8.703125 13.132812 C 8.679688 12.8125 8.71875 12.457031 8.726562 12.132812 Z M 8.890625 11.289062 "/></g></g></g><g fill="#1e1919" fill-opacity="1"><g transform="translate(162.054412, 234.340293)"><g><path d="M 0.0117188 -8.929688 C -0.0742188 -8.347656 -0.191406 -7.726562 -0.34375 -7.105469 C -0.457031 -6.457031 -0.480469 -5.90625 -0.480469 -5.457031 C -0.589844 -4.230469 -0.359375 -3.734375 -0.464844 -2.953125 C -0.554688 -2.402344 -0.746094 -1.90625 -0.753906 -1.554688 C -0.808594 -1.421875 -0.828125 -1.289062 -0.886719 -1.191406 C -1.046875 0.652344 -0.976562 0.710938 -0.910156 0.738281 L -0.734375 0.953125 C -0.671875 1.398438 0.605469 2.207031 0.863281 2.21875 C 0.925781 2.214844 1.304688 2.574219 1.402344 2.566406 C 1.433594 2.566406 1.433594 2.566406 1.464844 2.5625 C 1.59375 2.554688 1.859375 2.664062 1.953125 2.65625 C 2.234375 2.539062 2.109375 1.683594 2.382812 1.4375 C 2.597656 1.292969 2.238281 0.773438 2.539062 0.496094 C 2.75 0.289062 2.484375 -0.273438 2.578125 -0.3125 C 2.671875 -0.382812 2.695312 -0.480469 2.789062 -0.519531 C 2.789062 -0.550781 2.84375 -0.652344 2.875 -0.683594 C 3.453125 -1.59375 3.117188 -2.277344 3.429688 -3.292969 C 3.503906 -3.589844 3.585938 -3.820312 3.628906 -4.109375 C 3.761719 -4.503906 3.4375 -4.996094 3.605469 -5.78125 C 3.660156 -5.945312 3.710938 -6.109375 3.703125 -6.234375 L 3.679688 -6.554688 C 3.722656 -6.847656 3.769531 -7.109375 3.882812 -7.339844 C 4.226562 -8.394531 4.75 -9.136719 4.722656 -10 C 4.707031 -10.195312 4.695312 -10.351562 4.65625 -10.480469 L 4.675781 -10.640625 C 5.019531 -11.660156 5.015625 -12.207031 5.160156 -12.890625 L 5.292969 -13.703125 C 5.394531 -14.097656 5.527344 -14.492188 5.558594 -14.945312 C 5.492188 -15.003906 5.519531 -15.070312 5.519531 -15.070312 L 5.691406 -15.339844 C 5.671875 -15.65625 5.6875 -15.851562 5.578125 -16.070312 C 5.507812 -16.160156 5.527344 -16.289062 5.550781 -16.453125 C 5.851562 -18.113281 6.554688 -18.128906 6.546875 -19.15625 C 6.535156 -19.347656 6.511719 -19.636719 6.464844 -19.859375 C 6.492188 -19.957031 6.417969 -20.078125 6.375 -20.238281 L 6.304688 -20.328125 C 6.304688 -20.328125 6.300781 -20.359375 6.332031 -20.394531 C 6.300781 -20.359375 6.328125 -20.425781 6.261719 -20.484375 C 6.191406 -20.578125 6.761719 -22.03125 6.769531 -22.382812 C 6.824219 -22.964844 6.882812 -23.933594 6.878906 -24.480469 C 6.867188 -24.640625 6.855469 -24.800781 6.816406 -24.894531 C 6.808594 -25.46875 6.765625 -26.046875 6.628906 -26.613281 C 6.519531 -27.699219 6.40625 -27.949219 6.054688 -28.40625 C 5.53125 -29.425781 4.742188 -30.144531 4.015625 -30.445312 C 3.6875 -30.550781 3.234375 -30.582031 2.945312 -30.5625 C 2.753906 -30.578125 2.621094 -30.601562 2.460938 -30.589844 C 2.367188 -30.585938 2.304688 -30.582031 2.210938 -30.542969 C 2.054688 -30.464844 1.941406 -30.265625 1.890625 -30.070312 C 1.835938 -29.90625 1.84375 -29.777344 1.855469 -29.648438 L 1.871094 -29.425781 L 1.789062 -29.195312 L 1.367188 -24.734375 L 1.039062 -20.726562 C 1.023438 -20.5 1.003906 -20.308594 1.015625 -20.148438 C 0.996094 -19.984375 0.972656 -19.886719 0.976562 -19.789062 L 0.953125 -19.242188 L 0.960938 -19.148438 L 0.933594 -18.117188 C 0.925781 -17.796875 0.882812 -17.472656 0.839844 -17.210938 C 0.804688 -16.792969 0.746094 -16.242188 0.625 -15.6875 C 0.558594 -15.296875 0.484375 -14.9375 0.480469 -14.585938 C 0.421875 -14.484375 0.429688 -14.355469 0.40625 -14.257812 C 0.394531 -13.96875 0.410156 -13.710938 0.429688 -13.457031 C 0.433594 -13.425781 0.433594 -13.394531 0.40625 -13.359375 L 0.394531 -13.035156 C 0.394531 -12.617188 0.269531 -12.097656 0.242188 -11.546875 L 0.296875 -10.8125 L 0.242188 -10.199219 C 0.164062 -9.96875 0.144531 -9.742188 0.128906 -9.515625 C 0.113281 -9.324219 0.0625 -9.125 0.0117188 -8.929688 Z M 5.53125 -34.886719 C 4.539062 -34.816406 3.902344 -34.324219 4.078125 -33.179688 C 4.191406 -32.480469 5.011719 -31.769531 6.242188 -31.660156 C 6.339844 -31.636719 6.4375 -31.613281 6.566406 -31.621094 C 7.011719 -31.652344 7.988281 -32.394531 7.804688 -33.601562 C 7.507812 -34.675781 6.492188 -34.957031 5.53125 -34.886719 Z M 5.53125 -34.886719 "/></g></g></g><g fill="#1e1919" fill-opacity="1"><g transform="translate(170.427732, 233.748331)"><g><path d="M 16.515625 -18.542969 C 16.511719 -18.578125 16.503906 -18.734375 16.519531 -18.960938 C 16.558594 -19.316406 16.539062 -19.574219 16.464844 -19.730469 L 16.484375 -19.890625 C 16.433594 -20.144531 16.265625 -20.261719 16.058594 -20.472656 C 15.714844 -20.769531 15.28125 -20.996094 14.859375 -21.0625 C 14.757812 -21.117188 14.660156 -21.144531 14.597656 -21.140625 C 14.566406 -21.136719 14.402344 -21.191406 14.230469 -21.339844 C 14.128906 -21.394531 14.03125 -21.421875 14 -21.417969 C 13.9375 -21.414062 13.902344 -21.410156 13.90625 -21.378906 C 13.875 -21.378906 13.746094 -21.367188 13.710938 -21.398438 C 13.679688 -21.394531 13.613281 -21.421875 13.582031 -21.421875 C 13.550781 -21.417969 13.519531 -21.382812 13.492188 -21.316406 L 13.46875 -21.21875 L 13.363281 -21.339844 C 13.351562 -21.5 13.113281 -21.675781 12.953125 -21.664062 C 12.828125 -21.65625 12.703125 -21.582031 12.519531 -21.441406 C 12.234375 -21.390625 12.027344 -21.148438 11.769531 -20.714844 C 11.675781 -20.644531 11.644531 -20.640625 11.640625 -20.253906 C 11.6875 -20.035156 11.699219 -19.875 11.667969 -19.871094 C 11.644531 -19.773438 11.648438 -19.679688 11.59375 -19.578125 C 11.453125 -17.929688 10.976562 -16 10.113281 -14.589844 C 9.789062 -14.214844 9.609375 -14.007812 9.527344 -13.777344 C 9.015625 -12.425781 7.058594 -9.203125 5.691406 -8.5625 C 5.351562 -8.34375 5.132812 -8.265625 4.945312 -8.21875 C 4.847656 -8.210938 4.75 -8.238281 4.714844 -8.300781 C 4.347656 -8.464844 4.269531 -8.683594 4.289062 -9.296875 L 4.460938 -11.878906 L 4.566406 -12.65625 L 4.882812 -14.511719 C 4.933594 -14.707031 5.015625 -14.90625 5.046875 -14.9375 C 5.289062 -15.597656 5.511719 -16.546875 5.648438 -17.328125 C 5.664062 -17.550781 5.59375 -17.644531 5.589844 -17.707031 C 5.472656 -17.988281 5.527344 -18.152344 5.753906 -18.585938 C 5.839844 -18.722656 5.890625 -18.917969 5.914062 -19.015625 C 5.953125 -19.402344 6.078125 -19.894531 6.109375 -20.347656 C 6.253906 -21.03125 6.335938 -21.679688 6.25 -21.996094 C 6.21875 -21.992188 6.175781 -22.117188 6.171875 -22.214844 C 6.191406 -23.273438 5.980469 -24 5.464844 -24.476562 C 5.390625 -24.601562 5.324219 -24.660156 5.191406 -24.683594 C 4.785156 -24.972656 4.382812 -25.234375 3.992188 -25.304688 L 3.304688 -25.511719 C 3.070312 -25.625 2.910156 -25.644531 2.75 -25.632812 C 2.652344 -25.625 2.558594 -25.621094 2.464844 -25.550781 C 2.308594 -25.503906 2.183594 -25.433594 2.0625 -25.359375 C 1.722656 -25.175781 1.398438 -24.734375 0.835938 -23.601562 C 0.945312 -23.449219 1 -23.132812 0.941406 -22.582031 L 0.289062 -19.101562 C 0.230469 -19 0.207031 -18.867188 0.183594 -18.738281 C 0.0664062 -18.121094 -0.0117188 -17.410156 -0.121094 -16.695312 C -0.207031 -15.660156 -0.292969 -14.59375 -0.28125 -13.984375 C -0.238281 -13.828125 -0.1875 -13.574219 -0.210938 -13.441406 C -0.308594 -12.539062 -0.0898438 -11.269531 0.136719 -10.320312 L 0.242188 -10.199219 C 0.59375 -8.875 1.183594 -7.3125 2.484375 -6.632812 C 2.921875 -6.375 3.410156 -6.28125 3.953125 -6.316406 C 4.175781 -6.332031 4.367188 -6.378906 4.589844 -6.425781 L 4.832031 -6.605469 C 5.121094 -6.625 5.375 -6.644531 5.621094 -6.789062 C 5.648438 -6.855469 5.828125 -7.0625 6.035156 -7.332031 C 6.371094 -7.550781 6.765625 -7.898438 7.097656 -8.179688 L 7.269531 -8.480469 C 7.882812 -8.910156 8.390625 -9.457031 8.703125 -9.996094 C 9.121094 -10.472656 9.789062 -11.453125 10.015625 -11.917969 L 10.210938 -12.285156 C 10.222656 -12.15625 10.199219 -12.027344 10.210938 -11.867188 C 10.28125 -11.777344 10.222656 -10.808594 10.023438 -9.992188 C 9.859375 -9.113281 9.515625 -7.160156 9.511719 -6.773438 C 9.542969 -6.777344 9.542969 -6.746094 9.515625 -6.710938 C 9.550781 -6.648438 9.523438 -6.582031 9.527344 -6.519531 C 9.511719 -6.324219 9.488281 -6.195312 9.554688 -6.167969 L 9.503906 -5.941406 C 9.476562 -5.875 9.488281 -5.746094 9.523438 -5.683594 C 9.492188 -5.199219 9.375 -4.582031 9.191406 -3.539062 C 9.140625 -3.375 9.089844 -3.179688 9.070312 -3.019531 C 7.890625 -1.972656 6.742188 -0.925781 5.550781 -0.101562 L 5.007812 0.417969 C 4.328125 0.816406 3.796875 1.433594 3.359375 2.105469 C 3.277344 2.273438 3.132812 2.539062 3.03125 2.902344 C 2.324219 4.234375 2.121094 5.019531 2.179688 5.820312 C 2.199219 6.109375 2.1875 6.429688 2.234375 6.621094 C 2.226562 6.941406 2.324219 6.964844 2.496094 7.113281 C 2.691406 7.195312 2.828125 7.285156 2.929688 7.375 C 3.121094 7.808594 3.5 8.136719 4.058594 8.351562 C 4.222656 8.40625 4.386719 8.425781 4.578125 8.445312 C 5.070312 8.570312 5.332031 8.617188 5.777344 8.585938 C 5.972656 8.601562 6.199219 8.621094 6.484375 8.597656 C 6.671875 8.523438 6.832031 8.480469 6.921875 8.40625 C 7.105469 8.296875 7.261719 8.222656 7.296875 8.253906 C 7.617188 8.230469 7.867188 8.148438 8.152344 8.0625 L 8.925781 7.65625 C 9.109375 7.546875 9.355469 7.402344 9.664062 7.1875 C 9.785156 7.113281 9.910156 7.039062 9.964844 6.941406 C 10.238281 6.726562 10.417969 6.492188 10.585938 6.1875 L 11.582031 4.800781 C 11.613281 4.800781 11.734375 4.695312 11.824219 4.59375 C 12.027344 4.289062 12.203125 4.050781 12.34375 3.785156 L 12.433594 3.683594 C 12.464844 3.679688 12.523438 3.609375 12.523438 3.578125 C 12.546875 3.480469 12.640625 3.410156 12.730469 3.308594 C 13.027344 2.546875 13.546875 1.226562 13.484375 0.394531 C 13.550781 -0.0585938 13.917969 -2.109375 14.1875 -2.417969 C 14.253906 -2.390625 14.363281 -2.652344 14.433594 -3.011719 C 14.558594 -3.503906 14.625 -3.925781 14.632812 -4.277344 L 14.878906 -5.804688 C 15.222656 -5.957031 15.757812 -6.09375 15.902344 -6.328125 C 17.226562 -8.058594 18.941406 -9.207031 20.007812 -10.503906 C 20.039062 -10.507812 20.167969 -10.964844 20.164062 -11.027344 C 20.179688 -11.222656 20.042969 -11.34375 19.917969 -11.332031 C 19.851562 -11.359375 19.820312 -11.328125 19.789062 -11.324219 L 18.035156 -9.753906 C 17.039062 -8.847656 16.074219 -7.976562 15.101562 -7.203125 L 15.347656 -8.699219 C 15.316406 -8.695312 15.339844 -8.824219 15.425781 -8.960938 C 15.921875 -10.152344 16.175781 -11.519531 16.277344 -12.808594 L 16.589844 -15.242188 C 16.574219 -15.433594 16.566406 -15.527344 16.503906 -15.554688 C 16.535156 -16.007812 16.640625 -16.753906 16.871094 -17.15625 C 16.890625 -17.320312 16.882812 -17.445312 16.839844 -17.605469 C 16.796875 -17.761719 16.71875 -17.917969 16.742188 -18.078125 C 16.734375 -18.175781 16.621094 -18.421875 16.515625 -18.542969 Z M 5.65625 5.511719 C 5.542969 5.710938 5.453125 5.78125 5.355469 5.789062 C 5.292969 5.792969 5.261719 5.796875 5.226562 5.765625 C 5.253906 5.730469 5.1875 5.703125 5.09375 5.742188 C 4.910156 5.851562 4.789062 5.957031 4.824219 5.988281 L 4.703125 6.089844 C 4.644531 6.160156 4.539062 6.070312 4.441406 6.015625 C 4.019531 5.945312 3.976562 5.820312 4.03125 5.65625 C 4.066406 5.71875 4.019531 5.496094 3.96875 5.277344 C 4.015625 5.015625 4.027344 4.726562 4.097656 4.367188 C 4.113281 3.660156 4.574219 2.921875 5.019531 2.40625 C 5.023438 2.023438 5.503906 1.539062 5.613281 1.273438 L 6 0.796875 C 6.136719 0.464844 7.097656 0.429688 7.265625 0.0664062 C 7.734375 -0.546875 8.273438 -1.097656 8.78125 -1.617188 C 8.59375 -0.671875 8.367188 0.242188 8.21875 0.832031 C 8.15625 0.867188 8.160156 0.933594 8.164062 0.964844 L 8.082031 1.164062 C 7.800781 2.660156 7.3125 3.949219 6.761719 4.789062 C 6.558594 5.0625 6.34375 5.238281 6.183594 5.246094 C 6.121094 5.253906 6.058594 5.257812 6.023438 5.226562 C 5.832031 5.242188 5.773438 5.308594 5.65625 5.511719 Z M 5.65625 5.511719 "/></g></g></g><g fill="#1e1919" fill-opacity="1"><g transform="translate(189.731099, 232.383657)"><g><path d="M 0.0117188 -8.929688 C -0.0742188 -8.347656 -0.191406 -7.726562 -0.34375 -7.105469 C -0.457031 -6.457031 -0.480469 -5.90625 -0.480469 -5.457031 C -0.589844 -4.230469 -0.359375 -3.734375 -0.464844 -2.953125 C -0.554688 -2.402344 -0.746094 -1.90625 -0.753906 -1.554688 C -0.808594 -1.421875 -0.828125 -1.289062 -0.886719 -1.191406 C -1.046875 0.652344 -0.976562 0.710938 -0.910156 0.738281 L -0.734375 0.953125 C -0.671875 1.398438 0.605469 2.207031 0.863281 2.21875 C 0.925781 2.214844 1.304688 2.574219 1.402344 2.566406 C 1.433594 2.566406 1.433594 2.566406 1.464844 2.5625 C 1.59375 2.554688 1.859375 2.664062 1.953125 2.65625 C 2.234375 2.539062 2.109375 1.683594 2.382812 1.4375 C 2.597656 1.292969 2.238281 0.773438 2.539062 0.496094 C 2.75 0.289062 2.484375 -0.273438 2.578125 -0.3125 C 2.671875 -0.382812 2.695312 -0.480469 2.789062 -0.519531 C 2.789062 -0.550781 2.84375 -0.652344 2.875 -0.683594 C 3.453125 -1.59375 3.117188 -2.277344 3.429688 -3.292969 C 3.503906 -3.589844 3.585938 -3.820312 3.628906 -4.109375 C 3.761719 -4.503906 3.4375 -4.996094 3.605469 -5.78125 C 3.660156 -5.945312 3.710938 -6.109375 3.703125 -6.234375 L 3.679688 -6.554688 C 3.722656 -6.847656 3.769531 -7.109375 3.882812 -7.339844 C 4.226562 -8.394531 4.75 -9.136719 4.722656 -10 C 4.707031 -10.195312 4.695312 -10.351562 4.65625 -10.480469 L 4.675781 -10.640625 C 5.019531 -11.660156 5.015625 -12.207031 5.160156 -12.890625 L 5.292969 -13.703125 C 5.394531 -14.097656 5.527344 -14.492188 5.558594 -14.945312 C 5.492188 -15.003906 5.519531 -15.070312 5.519531 -15.070312 L 5.691406 -15.339844 C 5.671875 -15.65625 5.6875 -15.851562 5.578125 -16.070312 C 5.507812 -16.160156 5.527344 -16.289062 5.550781 -16.453125 C 5.851562 -18.113281 6.554688 -18.128906 6.546875 -19.15625 C 6.535156 -19.347656 6.511719 -19.636719 6.464844 -19.859375 C 6.492188 -19.957031 6.417969 -20.078125 6.375 -20.238281 L 6.304688 -20.328125 C 6.304688 -20.328125 6.300781 -20.359375 6.332031 -20.394531 C 6.300781 -20.359375 6.328125 -20.425781 6.261719 -20.484375 C 6.191406 -20.578125 6.761719 -22.03125 6.769531 -22.382812 C 6.824219 -22.964844 6.882812 -23.933594 6.878906 -24.480469 C 6.867188 -24.640625 6.855469 -24.800781 6.816406 -24.894531 C 6.808594 -25.46875 6.765625 -26.046875 6.628906 -26.613281 C 6.519531 -27.699219 6.40625 -27.949219 6.054688 -28.40625 C 5.53125 -29.425781 4.742188 -30.144531 4.015625 -30.445312 C 3.6875 -30.550781 3.234375 -30.582031 2.945312 -30.5625 C 2.753906 -30.578125 2.621094 -30.601562 2.460938 -30.589844 C 2.367188 -30.585938 2.304688 -30.582031 2.210938 -30.542969 C 2.054688 -30.464844 1.941406 -30.265625 1.890625 -30.070312 C 1.835938 -29.90625 1.84375 -29.777344 1.855469 -29.648438 L 1.871094 -29.425781 L 1.789062 -29.195312 L 1.367188 -24.734375 L 1.039062 -20.726562 C 1.023438 -20.5 1.003906 -20.308594 1.015625 -20.148438 C 0.996094 -19.984375 0.972656 -19.886719 0.976562 -19.789062 L 0.953125 -19.242188 L 0.960938 -19.148438 L 0.933594 -18.117188 C 0.925781 -17.796875 0.882812 -17.472656 0.839844 -17.210938 C 0.804688 -16.792969 0.746094 -16.242188 0.625 -15.6875 C 0.558594 -15.296875 0.484375 -14.9375 0.480469 -14.585938 C 0.421875 -14.484375 0.429688 -14.355469 0.40625 -14.257812 C 0.394531 -13.96875 0.410156 -13.710938 0.429688 -13.457031 C 0.433594 -13.425781 0.433594 -13.394531 0.40625 -13.359375 L 0.394531 -13.035156 C 0.394531 -12.617188 0.269531 -12.097656 0.242188 -11.546875 L 0.296875 -10.8125 L 0.242188 -10.199219 C 0.164062 -9.96875 0.144531 -9.742188 0.128906 -9.515625 C 0.113281 -9.324219 0.0625 -9.125 0.0117188 -8.929688 Z M 5.53125 -34.886719 C 4.539062 -34.816406 3.902344 -34.324219 4.078125 -33.179688 C 4.191406 -32.480469 5.011719 -31.769531 6.242188 -31.660156 C 6.339844 -31.636719 6.4375 -31.613281 6.566406 -31.621094 C 7.011719 -31.652344 7.988281 -32.394531 7.804688 -33.601562 C 7.507812 -34.675781 6.492188 -34.957031 5.53125 -34.886719 Z M 5.53125 -34.886719 "/></g></g></g><g fill="#1e1919" fill-opacity="1"><g transform="translate(198.104419, 231.791696)"><g><path d="M 26.519531 -9.679688 C 26.539062 -9.90625 26.605469 -9.878906 26.648438 -10.171875 L 26.613281 -11.101562 L 26.925781 -11.699219 L 27.28125 -13.460938 C 27.558594 -15.019531 27.453125 -13.761719 27.605469 -14.800781 L 27.828125 -16.164062 C 27.832031 -16.582031 27.929688 -17.007812 27.964844 -17.425781 L 28.035156 -17.785156 C 28.085938 -18.011719 28.101562 -18.207031 28.117188 -18.433594 C 28.179688 -18.953125 28.207031 -19.46875 28.234375 -19.953125 C 28.289062 -21.015625 28.285156 -21.976562 28.285156 -22.878906 C 28.269531 -24 28.199219 -25.023438 28.0625 -26.042969 C 27.90625 -26.417969 27.660156 -26.753906 27.414062 -27.054688 C 27.398438 -27.28125 27.289062 -27.433594 27.28125 -27.527344 C 27.238281 -27.6875 27.0625 -27.898438 26.789062 -28.167969 L 26.480469 -28.433594 C 26.480469 -28.433594 26.445312 -28.496094 26.410156 -28.496094 L 26.273438 -28.644531 C 26.136719 -28.765625 26.035156 -28.820312 25.742188 -28.898438 C 25.410156 -29.035156 25.113281 -29.140625 24.632812 -29.140625 C 24.535156 -29.132812 24.472656 -29.097656 24.347656 -29.054688 L 24.125 -29.039062 C 23.777344 -28.984375 23.402344 -28.828125 23.035156 -28.578125 C 22.691406 -28.390625 22.359375 -28.113281 22.125 -27.804688 C 22.066406 -27.738281 21.941406 -27.664062 21.882812 -27.5625 C 21.433594 -27.113281 20.992188 -26.570312 20.496094 -25.828125 C 20.347656 -25.65625 20.238281 -25.425781 20.09375 -25.1875 L 19.289062 -23.816406 L 18.980469 -23.183594 C 18.867188 -23.015625 18.753906 -22.75 18.640625 -22.582031 C 18.527344 -22.347656 18.417969 -22.050781 18.304688 -21.851562 C 17.996094 -21.25 17.71875 -20.621094 17.433594 -20.117188 L 17.160156 -19.425781 C 17.097656 -19.390625 17.101562 -19.324219 17.074219 -19.289062 C 16.929688 -19.023438 16.851562 -18.792969 16.765625 -18.625 C 16.75 -18.882812 16.785156 -19.269531 16.855469 -19.660156 C 16.871094 -19.886719 16.882812 -20.144531 16.933594 -20.371094 C 16.882812 -20.59375 16.902344 -20.820312 16.882812 -21.074219 C 16.84375 -22.070312 16.765625 -23.1875 16.65625 -24.304688 C 16.535156 -25.996094 15.867188 -27.265625 14.808594 -28.605469 C 14.425781 -28.996094 14.058594 -29.226562 13.660156 -29.425781 L 13.527344 -29.480469 C 13.226562 -29.617188 12.996094 -29.730469 12.769531 -29.746094 C 12.671875 -29.738281 12.542969 -29.761719 12.445312 -29.753906 C 12.320312 -29.746094 12.160156 -29.703125 12.035156 -29.664062 C 11.660156 -29.507812 11.351562 -29.324219 11.050781 -29.046875 L 10.191406 -28.054688 L 9.925781 -27.683594 C 9.136719 -26.597656 8.09375 -25.015625 7.597656 -23.824219 C 7.339844 -23.386719 7.03125 -22.757812 6.640625 -21.925781 L 6.457031 -21.785156 C 6.332031 -22.675781 6.183594 -23.371094 5.757812 -23.949219 C 5.71875 -24.078125 5.921875 -24.347656 5.914062 -24.476562 C 5.699219 -24.8125 5.5 -26.695312 4.945312 -27.265625 C 4.664062 -27.632812 4.386719 -27.902344 4.183594 -28.078125 C 4.007812 -28.261719 3.875 -28.347656 3.742188 -28.371094 C 3.609375 -28.457031 3.414062 -28.507812 3.21875 -28.523438 C 3.027344 -28.511719 2.835938 -28.464844 2.652344 -28.355469 C 2.621094 -28.324219 2.589844 -28.320312 2.589844 -28.320312 C 2.527344 -28.316406 2.886719 -28.695312 2.628906 -28.675781 C 2.597656 -28.675781 2.566406 -28.671875 2.535156 -28.667969 L 1.863281 -28.621094 C 1.136719 -28.441406 1.394531 -28.429688 0.949219 -28.398438 C 0.722656 -28.382812 0.539062 -28.273438 0.421875 -28.132812 L 0.234375 -28.023438 C 0.210938 -27.925781 0.214844 -27.832031 0.222656 -27.734375 C 0.261719 -27.640625 0.238281 -27.542969 0.34375 -27.421875 C 0.347656 -27.328125 0.457031 -27.140625 0.539062 -26.921875 L 0.585938 -26.667969 C 0.605469 -26.445312 0.804688 -25.847656 0.929688 -25.472656 C 1.167969 -24.847656 0.683594 -24.425781 1.101562 -23.941406 C 1.480469 -23.585938 0.929688 -22.292969 1.109375 -22.015625 C 1.148438 -21.921875 1.078125 -21.53125 1.117188 -21.4375 L 1.042969 -20.664062 C 1.082031 -20.152344 0.773438 -19.519531 0.789062 -18.847656 C 0.792969 -18.300781 0.742188 -17.652344 0.722656 -17.042969 L 0.722656 -16.144531 C 0.636719 -14.628906 0.53125 -12.917969 0.363281 -11.203125 L 0.339844 -10.625 L 0.351562 -9.566406 L 0.113281 -5.691406 L 0.117188 -5.628906 C 0.09375 -5.5 0.101562 -5.371094 0.109375 -5.273438 L 0.0976562 -4.535156 C 0.113281 -4.28125 0.164062 -4.027344 0.183594 -3.769531 L 0.210938 -3.386719 C 0.328125 -2.625 0.460938 -2.121094 0.773438 -1.757812 L 0.914062 -1.605469 C 1.097656 -1.296875 1.421875 -0.808594 1.71875 -0.699219 L 2.042969 -0.625 C 2.175781 -0.570312 2.339844 -0.550781 2.5 -0.53125 C 2.789062 -0.519531 3.121094 0.101562 3.375 0.0195312 C 3.597656 0.00390625 3.753906 -0.0390625 3.914062 -0.0820312 C 4.074219 -0.09375 4.230469 -0.105469 4.351562 -0.210938 C 4.507812 -0.320312 4.617188 -0.550781 4.699219 -0.78125 L 4.925781 -1.214844 C 4.988281 -1.21875 5.164062 -1.488281 5.246094 -1.65625 L 5.609375 -2.871094 C 5.8125 -3.171875 5.945312 -3.566406 5.933594 -3.761719 L 5.894531 -3.855469 C 5.882812 -4.011719 5.96875 -4.179688 5.984375 -4.375 L 6.085938 -4.796875 C 6.171875 -5.382812 6.1875 -6.957031 6.230469 -7.28125 L 6.253906 -7.863281 C 6.21875 -7.921875 6.246094 -7.957031 6.242188 -8.023438 C 6.207031 -8.082031 6.203125 -8.148438 6.195312 -8.242188 C 6.246094 -8.4375 6.265625 -8.601562 6.246094 -8.855469 C 6.230469 -9.082031 6.132812 -9.554688 6.117188 -9.8125 C 6.183594 -9.753906 6.179688 -9.816406 6.09375 -10.097656 C 6.082031 -10.289062 6.070312 -10.449219 6.089844 -10.644531 C 6.089844 -11.09375 6.058594 -11.511719 6.015625 -11.667969 C 6.003906 -13.207031 6.289062 -15.539062 6.53125 -17.101562 L 6.574219 -17.425781 C 6.59375 -17.585938 6.613281 -17.78125 6.628906 -18.007812 C 6.648438 -18.167969 6.699219 -18.363281 6.785156 -18.53125 C 6.804688 -18.691406 6.859375 -18.824219 6.976562 -18.996094 C 7.089844 -19.195312 7.171875 -19.425781 7.222656 -19.621094 L 7.625 -20.742188 L 8.046875 -21.574219 C 8.191406 -21.808594 8.269531 -22.039062 8.351562 -22.238281 L 8.46875 -22.441406 C 8.550781 -22.605469 8.699219 -22.777344 8.816406 -22.980469 C 8.875 -23.015625 8.871094 -23.078125 8.933594 -23.117188 L 9.371094 -23.726562 C 9.367188 -23.789062 9.449219 -23.988281 9.535156 -24.152344 L 9.820312 -24.65625 L 10.496094 -25.539062 C 10.644531 -25.742188 10.792969 -25.914062 10.882812 -25.984375 C 11.144531 -26.355469 11.332031 -26.433594 11.554688 -26.449219 C 11.6875 -26.425781 11.796875 -26.207031 11.851562 -25.921875 L 11.859375 -25.796875 C 11.902344 -25.671875 11.945312 -25.480469 11.960938 -25.289062 L 12.101562 -24.175781 L 12.214844 -22.578125 L 12.273438 -22.226562 C 12.304688 -21.746094 12.308594 -21.265625 12.316406 -20.722656 L 12.265625 -17.761719 L 12.230469 -17.34375 C 12.230469 -16.476562 12.195312 -15.574219 12.105469 -14.570312 L 11.828125 -11.691406 C 11.582031 -9.714844 11.4375 -8.164062 11.421875 -7.90625 L 11.40625 -7.679688 C 11.375 -7.195312 11.476562 -6.65625 11.613281 -6.570312 C 11.664062 -6.285156 11.746094 -6.066406 11.792969 -5.84375 C 12.015625 -5.410156 12.449219 -5.183594 13.027344 -5.191406 L 13.21875 -5.207031 C 13.445312 -5.160156 14.109375 -4.882812 14.429688 -4.90625 C 14.460938 -4.910156 14.523438 -4.914062 14.554688 -4.949219 C 14.984375 -5.203125 14.867188 -6.445312 15.121094 -6.914062 L 15.261719 -7.183594 C 15.382812 -7.320312 15.4375 -7.449219 15.457031 -7.613281 C 15.53125 -7.90625 15.578125 -8.199219 15.597656 -8.328125 L 15.777344 -9.015625 C 15.820312 -9.277344 15.902344 -9.507812 15.957031 -9.640625 C 16.042969 -9.804688 16.179688 -10.105469 16.3125 -10.53125 C 16.484375 -10.832031 16.582031 -11.226562 16.722656 -11.972656 L 16.820312 -12.429688 C 16.945312 -12.921875 17.003906 -13.441406 17.132812 -13.898438 L 17.300781 -14.714844 C 17.378906 -14.976562 17.496094 -15.144531 17.578125 -15.3125 L 17.71875 -15.609375 L 18.277344 -17.222656 C 18.386719 -17.519531 18.5 -17.753906 18.609375 -17.984375 L 19.761719 -20.796875 C 20.113281 -21.722656 20.378906 -22.480469 20.671875 -22.886719 L 20.792969 -23.023438 C 20.855469 -23.027344 20.882812 -23.09375 20.972656 -23.195312 C 21.117188 -23.429688 21.265625 -23.601562 21.355469 -23.703125 L 21.828125 -24.285156 C 22.03125 -24.554688 22.210938 -24.761719 22.460938 -24.875 L 22.613281 -24.980469 C 22.917969 -25.226562 23.042969 -25.238281 23.394531 -25.261719 C 23.433594 -25.167969 23.417969 -24.972656 23.402344 -24.714844 L 23.359375 -24.425781 C 23.34375 -24.199219 23.21875 -23.675781 23.148438 -23.316406 C 23.074219 -22.992188 22.996094 -22.730469 23.003906 -22.632812 C 22.984375 -22.46875 22.878906 -22.109375 22.707031 -21.390625 L 22.082031 -18.390625 L 21.367188 -14.453125 C 21.289062 -14.191406 21.242188 -13.933594 21.195312 -13.671875 L 20.53125 -10.378906 C 20.375 -9.40625 20.503906 -10.316406 20.390625 -9.152344 L 20.34375 -8.472656 C 20.300781 -7.699219 20.261719 -6.925781 20.285156 -6.125 C 20.261719 -5.992188 20.273438 -5.832031 20.28125 -5.707031 C 20.234375 -3.195312 20.542969 -1.097656 21.273438 0.167969 L 21.574219 0.753906 C 22.085938 1.617188 22.75 2.40625 23.453125 2.804688 C 23.585938 2.863281 23.71875 2.917969 23.878906 2.90625 C 24.214844 3.105469 24.515625 3.277344 24.867188 3.285156 C 24.898438 3.28125 24.933594 3.28125 24.996094 3.277344 C 25.1875 3.261719 25.34375 3.1875 25.5625 3.105469 L 25.84375 2.992188 C 25.90625 2.953125 25.9375 2.953125 25.96875 2.949219 L 26.121094 2.84375 C 26.246094 2.769531 26.402344 2.726562 26.59375 2.714844 C 26.910156 2.625 27.367188 2.273438 27.917969 1.429688 L 28.214844 1.121094 C 28.699219 0.667969 29.011719 0.101562 29.332031 -0.371094 L 29.382812 -0.535156 L 29.9375 -1.3125 C 30.386719 -2.277344 31.667969 -4.582031 31.941406 -5.277344 C 32.054688 -5.445312 32.140625 -5.613281 32.164062 -5.710938 C 32.222656 -5.84375 32.339844 -5.980469 32.390625 -6.144531 L 32.640625 -6.707031 L 32.746094 -7.070312 C 32.855469 -7.332031 32.964844 -7.566406 33.042969 -7.859375 C 33.039062 -7.925781 33.066406 -7.957031 33.066406 -7.992188 C 33.050781 -8.214844 33 -8.4375 32.921875 -8.65625 C 32.828125 -8.617188 32.769531 -8.546875 32.679688 -8.414062 C 32.566406 -8.210938 32.449219 -8.042969 32.203125 -7.480469 L 32.027344 -7.242188 L 31.917969 -6.945312 C 31.921875 -6.882812 31.75 -6.582031 31.464844 -6.109375 L 31.128906 -5.414062 L 29.902344 -3.207031 C 29.816406 -3.039062 29.730469 -2.90625 29.621094 -2.640625 L 29.480469 -2.339844 L 29.078125 -1.671875 C 28.707031 -1.035156 28.179688 -0.289062 27.621094 -0.0273438 C 27.4375 0.117188 27.34375 0.15625 27.121094 0.171875 C 26.894531 0.152344 26.679688 -0.183594 26.695312 -0.378906 L 26.625 -0.46875 C 26.453125 -0.648438 26.335938 -0.929688 26.242188 -1.339844 C 26.128906 -1.589844 26.101562 -1.972656 26.0625 -2.515625 C 25.972656 -3.378906 25.949219 -4.148438 26.019531 -4.988281 C 26.070312 -5.601562 26.003906 -6.109375 26.113281 -6.824219 C 26.191406 -7.054688 26.359375 -7.421875 26.445312 -7.585938 L 26.492188 -7.847656 C 26.453125 -7.910156 26.472656 -8.101562 26.460938 -8.261719 C 26.46875 -8.585938 26.515625 -8.875 26.542969 -8.941406 C 26.566406 -9.039062 26.355469 -9.316406 26.320312 -9.34375 Z M 26.519531 -9.679688 "/></g></g></g><g fill="#1e1919" fill-opacity="1"><g transform="translate(230.926539, 229.471299)"><g/></g></g><g fill="#1e1919" fill-opacity="1"><g transform="translate(242.335985, 228.664695)"><g><path d="M -2.242188 0.09375 C -2.0625 -0.109375 -1.894531 -0.445312 -1.753906 -0.742188 L -0.492188 -3.304688 C -0.292969 -3.707031 -0.0625 -4.042969 0.234375 -4.386719 L 0.292969 -4.484375 C 0.53125 -4.757812 0.917969 -5.203125 1.308594 -5.554688 C 1.648438 -6.1875 1.996094 -6.726562 2.40625 -7.332031 C 2.695312 -7.738281 2.921875 -8.203125 3.242188 -8.644531 C 4.039062 -8.765625 5.347656 -8.890625 6.175781 -8.980469 L 8.757812 -9.710938 C 8.847656 -9.78125 8.945312 -9.785156 9.039062 -9.792969 C 9.171875 -9.769531 9.300781 -9.746094 9.335938 -9.6875 C 9.351562 -9.492188 9.257812 -9.003906 9.144531 -8.292969 C 8.972656 -6.671875 8.890625 -5.09375 8.910156 -3.457031 C 8.921875 -3.265625 8.878906 -2.972656 8.871094 -2.617188 C 8.789062 -2.003906 8.710938 -1.257812 8.730469 -0.96875 C 8.738281 -0.875 8.777344 -0.78125 8.816406 -0.6875 L 8.953125 -0.117188 C 9.050781 1.253906 9.382812 2.773438 9.859375 4.089844 L 10.011719 4.429688 C 10.148438 4.550781 10.292969 4.765625 10.472656 5.007812 L 10.972656 5.746094 C 11.152344 6.019531 11.332031 6.296875 11.507812 6.476562 C 11.863281 7.417969 12.425781 7.632812 13.160156 7.582031 C 13.382812 7.566406 13.636719 7.515625 13.890625 7.464844 L 14.332031 7.371094 C 14.398438 7.367188 14.457031 7.328125 14.550781 7.289062 C 14.707031 7.214844 14.992188 7.164062 15.082031 7.058594 C 15.132812 6.445312 15.175781 6.121094 15.164062 5.480469 C 15.1875 5.382812 15.179688 5.253906 15.167969 5.09375 C 15 4.976562 14.921875 4.824219 14.90625 4.597656 C 14.8125 4.1875 14.910156 3.699219 14.800781 3.097656 L 14.699219 2.558594 C 14.613281 2.273438 14.496094 1.960938 14.417969 1.773438 C 14.285156 1.269531 14.183594 0.699219 14.128906 -0.0351562 C 14.085938 -0.644531 14.070312 -1.316406 14.0625 -1.925781 C 14.007812 -2.210938 14.019531 -2.5 14.035156 -2.757812 C 14.023438 -2.917969 14.015625 -3.046875 14.035156 -3.207031 C 14.070312 -4.046875 13.757812 -4.859375 14 -5.96875 C 14.144531 -6.171875 14.058594 -6.519531 14.046875 -6.644531 C 14.019531 -7.960938 14.039062 -9.023438 14.109375 -9.894531 C 14.183594 -10.640625 14.292969 -10.933594 14.539062 -11.082031 L 14.980469 -11.625 L 15.539062 -11.890625 C 16.042969 -12.054688 16.351562 -12.207031 16.535156 -12.347656 C 16.714844 -12.550781 16.796875 -12.75 16.785156 -12.910156 C 16.773438 -13.101562 16.558594 -13.859375 16.265625 -13.902344 L 15.476562 -13.71875 L 15.042969 -13.460938 C 14.570312 -13.332031 14.921875 -13.355469 14.539062 -13.328125 C 14.523438 -13.554688 14.570312 -13.78125 14.613281 -14.105469 C 14.738281 -15.078125 14.890625 -16.085938 15.042969 -17.089844 L 14.890625 -17.882812 C 14.785156 -18.488281 14.679688 -19.089844 14.542969 -19.65625 C 14.632812 -20.210938 14.65625 -20.757812 14.714844 -21.308594 C 14.75 -21.695312 14.816406 -21.667969 14.878906 -22.15625 C 14.921875 -22.929688 14.949219 -23.414062 14.851562 -23.917969 C 14.695312 -24.292969 14.511719 -24.632812 14.265625 -24.9375 C 14.121094 -25.152344 13.910156 -25.425781 13.703125 -25.605469 C 13.21875 -26.085938 12.332031 -26.855469 11.5625 -26.800781 C 11.5 -26.796875 11.359375 -26.980469 11.296875 -26.945312 C 11.074219 -26.898438 10.859375 -26.785156 10.742188 -26.617188 L 10.523438 -26.085938 C 10.4375 -25.921875 10.386719 -25.722656 10.308594 -25.492188 C 9.785156 -24.234375 8.773438 -22.65625 7.386719 -20.4375 C 6.804688 -19.59375 6.308594 -18.882812 5.839844 -18.273438 L 5.261719 -17.363281 C 4.929688 -16.152344 4.234375 -15.074219 3.734375 -13.945312 C 3.132812 -12.492188 2.335938 -11.054688 2.121094 -10.429688 C 1.757812 -10.113281 0.777344 -9.914062 0.265625 -9.878906 C 0.167969 -9.871094 0.101562 -9.898438 0.0390625 -9.894531 C -0.300781 -9.679688 -1.125 -9.105469 -1.097656 -8.691406 C -1.121094 -8.59375 -1.050781 -8.5 -0.949219 -8.445312 C -0.9375 -8.285156 -0.671875 -8.144531 -0.3125 -8.070312 C -0.0234375 -8.058594 0.265625 -8.082031 0.550781 -8.101562 C 0.324219 -7.699219 -0.0117188 -7 -0.523438 -6.035156 L -1.148438 -4.867188 C -1.511719 -4.101562 -1.902344 -3.300781 -2.304688 -2.597656 L -3.097656 -1.128906 L -3.738281 -0.183594 C -4.085938 0.351562 -4.496094 0.929688 -4.878906 1.4375 L -5.144531 1.746094 L -5.269531 2.234375 C -5.296875 2.300781 -5.355469 2.371094 -5.351562 2.433594 C -5.351562 2.464844 -5.382812 2.46875 -5.378906 2.5 C -5.460938 2.730469 -5.476562 2.925781 -5.5 3.085938 C -5.496094 3.117188 -5.496094 3.117188 -5.460938 3.148438 C -5.445312 3.402344 -5.371094 3.558594 -5.144531 3.574219 C -5.011719 3.597656 -4.734375 3.449219 -4.371094 3.136719 L -4.339844 3.132812 C -4.125 2.988281 -4.007812 2.820312 -3.828125 2.648438 C -3.625 2.34375 -3.417969 2.074219 -3.210938 1.832031 L -2.960938 1.300781 C -2.730469 0.933594 -2.53125 0.53125 -2.242188 0.09375 Z M 6.546875 -10.964844 C 6.515625 -10.996094 6.449219 -10.992188 6.386719 -10.988281 C 5.96875 -10.957031 5.164062 -10.546875 4.652344 -10.511719 C 4.589844 -10.507812 4.523438 -10.5 4.492188 -10.5 C 4.398438 -10.492188 4.300781 -10.484375 4.269531 -10.484375 C 4.257812 -10.675781 4.363281 -10.972656 4.53125 -11.335938 C 4.96875 -12.429688 5.519531 -13.6875 5.960938 -14.746094 L 6.574219 -16.042969 C 6.742188 -16.375 6.910156 -16.773438 7.015625 -17.101562 C 7.089844 -17.394531 7.203125 -17.597656 7.324219 -17.734375 C 7.464844 -18 7.605469 -18.269531 7.714844 -18.53125 C 7.855469 -18.800781 7.960938 -19.128906 8.101562 -19.425781 L 8.433594 -20.1875 C 8.574219 -20.488281 8.835938 -20.859375 9.015625 -21.066406 C 9.128906 -21.234375 9.351562 -21.765625 9.496094 -21.96875 C 9.757812 -22.371094 10.160156 -23.042969 10.414062 -23.507812 C 10.453125 -23.449219 10.550781 -23.390625 10.589844 -23.296875 C 10.660156 -22.757812 10.644531 -22.082031 10.632812 -21.339844 C 10.59375 -20.984375 10.566406 -20.4375 10.484375 -19.820312 C 10.277344 -18.167969 9.9375 -15.734375 9.75 -13.859375 C 9.777344 -13.890625 9.710938 -13.46875 9.675781 -13.050781 C 9.640625 -12.628906 9.636719 -12.246094 9.632812 -11.859375 L 8.941406 -11.617188 C 8.289062 -11.347656 7.597656 -11.136719 6.898438 -10.992188 Z M 6.546875 -10.964844 "/></g></g></g><g fill="#1e1919" fill-opacity="1"><g transform="translate(259.97747, 227.41751)"><g><path d="M 2.1875 -2.691406 C 1.195312 -2.621094 0.554688 -2.128906 0.734375 -0.984375 C 0.847656 -0.285156 1.667969 0.429688 2.894531 0.535156 C 2.996094 0.558594 3.09375 0.585938 3.21875 0.574219 C 3.667969 0.542969 4.644531 -0.199219 4.460938 -1.40625 C 4.160156 -2.476562 3.144531 -2.761719 2.1875 -2.691406 Z M 2.1875 -2.691406 "/></g></g></g><g fill="#1e1919" fill-opacity="1"><g transform="translate(267.615727, 226.877514)"><g><path d="M 7.433594 -16.167969 C 7.457031 -16.296875 6.890625 -16.546875 6.800781 -16.957031 L 6.628906 -17.074219 C 6.558594 -17.167969 5.734375 -17.460938 5.480469 -18.34375 C 5.21875 -18.839844 5.148438 -19.378906 5.183594 -19.800781 C 5.234375 -20.027344 5.285156 -20.222656 5.40625 -20.296875 L 5.589844 -20.4375 C 5.675781 -20.605469 6.464844 -21.238281 6.707031 -21.449219 C 6.960938 -22.398438 7.878906 -23.492188 10.117188 -23.648438 C 10.4375 -23.671875 10.789062 -23.664062 11.144531 -23.65625 C 11.398438 -23.707031 11.589844 -23.722656 11.78125 -23.734375 C 12.132812 -23.757812 13.035156 -23.726562 13.277344 -23.453125 C 13.273438 -23.488281 13.535156 -23.472656 13.597656 -23.445312 C 13.832031 -23.332031 14.234375 -22.171875 14.09375 -21.007812 C 13.855469 -19.351562 12.859375 -18.480469 11.773438 -18.402344 C 11.613281 -18.390625 11.484375 -18.382812 11.320312 -18.402344 C 10.285156 -18.523438 11.1875 -20.320312 10.3125 -20.417969 C 9.988281 -20.460938 9.722656 -20.570312 9.5625 -20.558594 C 9.402344 -20.546875 9.316406 -20.414062 9.253906 -19.957031 C 9.105469 -18.886719 9.996094 -17.601562 11.488281 -17.417969 C 11.878906 -17.347656 12.167969 -17.335938 12.425781 -17.355469 C 12.777344 -17.378906 13.089844 -17.5 13.640625 -17.859375 L 13.796875 -17.933594 C 14.003906 -18.175781 14.144531 -18.441406 14.316406 -18.742188 C 14.316406 -18.742188 14.351562 -18.710938 14.382812 -18.714844 C 14.515625 -18.691406 14.597656 -18.859375 14.617188 -19.019531 L 14.613281 -19.117188 C 14.660156 -19.34375 15.027344 -19.59375 15.027344 -19.59375 C 15.054688 -19.660156 15.082031 -19.726562 15.078125 -19.792969 C 15.101562 -19.921875 14.980469 -19.816406 15.003906 -19.945312 C 15.046875 -20.238281 15.160156 -19.992188 15.214844 -20.605469 L 15.476562 -21.875 C 15.574219 -22.78125 15.242188 -23.820312 14.882812 -24.371094 C 14.625 -25.316406 14.273438 -25.742188 14.269531 -25.773438 C 14.296875 -25.871094 14.191406 -25.992188 14.125 -25.988281 L 13.980469 -26.234375 C 14.003906 -26.363281 13.285156 -26.988281 13.210938 -27.113281 C 13.101562 -27.328125 12.265625 -27.75 11.132812 -27.894531 C 10.679688 -27.929688 10.195312 -27.992188 9.746094 -27.957031 L 9.527344 -27.878906 C 9.496094 -27.875 9.433594 -27.871094 9.398438 -27.871094 C 7.992188 -27.769531 6.230469 -27.292969 5.058594 -26.566406 L 4.90625 -26.492188 C 4.410156 -26.199219 3.953125 -25.847656 3.503906 -25.398438 C 2.925781 -24.972656 2.320312 -24.445312 2.054688 -24.105469 C 1.640625 -23.59375 1.40625 -22.839844 1.398438 -22.902344 C 1.238281 -22.925781 1.113281 -22.433594 1.089844 -22.273438 C 1.070312 -22.109375 1.078125 -21.980469 1.152344 -21.890625 L 1.210938 -21.960938 C 1.242188 -21.929688 1.25 -21.832031 1.199219 -21.636719 C 1.238281 -21.542969 1.246094 -21.449219 1.253906 -21.351562 C 1.203125 -21.125 0.871094 -21.324219 0.832031 -20.9375 C 0.804688 -20.871094 0.808594 -20.808594 0.808594 -20.808594 C 0.808594 -20.808594 0.804688 -20.902344 0.738281 -20.898438 C 0.703125 -20.929688 0.675781 -20.863281 0.652344 -20.761719 C 0.589844 -20.277344 0.953125 -19.242188 1.113281 -19.222656 C 1.210938 -19.195312 1.261719 -19.394531 1.289062 -19.460938 C 1.265625 -19.363281 1.546875 -17.648438 1.636719 -17.300781 C 1.609375 -17.203125 1.652344 -17.074219 1.597656 -16.945312 C 1.734375 -16.375 3.097656 -14.769531 3.457031 -14.28125 L 3.6875 -14.167969 C 4.167969 -13.753906 5.226562 -13.3125 5.558594 -13.144531 C 6.15625 -12.898438 6.171875 -12.640625 6.671875 -12.386719 C 7.488281 -11.769531 7.703125 -11.464844 8.386719 -10.871094 C 9.292969 -10.292969 9.75 -9.746094 10.042969 -9.253906 C 10.960938 -8.515625 11.28125 -7.1875 11.152344 -6.25 C 11.03125 -5.277344 10.53125 -4.148438 9.746094 -2.96875 C 9.46875 -2.339844 9.320312 -1.300781 8.519531 -0.796875 C 7.933594 -0.433594 7.253906 -0.0625 6.65625 0.109375 L 6.222656 0.332031 C 6.066406 0.375 5.71875 0.496094 5.5 0.542969 L 4.996094 0.675781 L 4.703125 0.632812 C 4.605469 0.605469 4.484375 0.742188 4.171875 0.828125 L 3.511719 1.070312 C 2.957031 0.945312 2.246094 0.902344 1.75 0.648438 C 1.714844 0.648438 1.652344 0.652344 1.621094 0.65625 C 1.460938 0.667969 1.363281 0.640625 1.363281 0.640625 C 0.683594 0.5625 0.0859375 0.28125 -0.0429688 -0.605469 C 0.0429688 -1.222656 -0.257812 -0.914062 -0.078125 -2.46875 C 0.0625 -3.632812 1.472656 -4.152344 1.539062 -4.605469 C 1.527344 -4.765625 2.21875 -4.976562 2.234375 -5.167969 C 2.273438 -5.558594 2.6875 -5.617188 2.988281 -5.863281 C 3.027344 -6.21875 2.53125 -6.472656 2.046875 -6.503906 C 1.882812 -6.523438 1.6875 -6.542969 1.53125 -6.53125 C 1.019531 -6.496094 0.554688 -6.238281 -0.136719 -5.546875 C -0.832031 -4.503906 -1.152344 -3.582031 -1.363281 -2.023438 C -1.609375 -0.046875 -1.164062 2.136719 0.496094 3.371094 C 1.851562 4.398438 3.15625 4.660156 4.796875 4.671875 C 4.773438 4.832031 4.785156 4.992188 4.730469 5.125 C 4.769531 5.21875 4.777344 5.316406 4.78125 5.378906 C 4.832031 5.664062 4.660156 5.933594 4.71875 6.316406 C 4.601562 7.414062 4.53125 8.671875 4.359375 9.875 C 3.984375 10.445312 4.238281 11.328125 4.71875 11.292969 C 4.941406 11.277344 5.183594 11.101562 5.445312 10.664062 C 5.652344 10.457031 6.628906 9.265625 7.089844 8.492188 C 7.121094 8.488281 7.148438 8.457031 7.148438 8.457031 C 7.308594 8.445312 7.332031 8.765625 7.378906 8.953125 C 7.496094 9.714844 7.496094 10.617188 7.554688 11.445312 C 7.214844 12.113281 7.433594 12.902344 7.785156 12.875 C 8.039062 12.859375 8.394531 12.445312 8.695312 11.238281 C 8.9375 10.578125 9.019531 9.929688 9.199219 9.242188 L 9.191406 9.148438 C 9.171875 8.441406 9.09375 7.804688 9.015625 7.136719 C 8.972656 6.976562 8.882812 6.597656 8.585938 6.523438 C 8.25 6.773438 7.066406 7.722656 6.921875 7.957031 L 5.859375 9.285156 C 5.765625 9.324219 5.703125 9.359375 5.710938 9.457031 C 5.695312 9.234375 5.871094 8.964844 6.082031 8.789062 L 5.984375 8.761719 L 5.976562 8.667969 C 5.921875 8.316406 6.058594 7.988281 6.097656 7.632812 C 6.234375 7.300781 6.019531 7.027344 6.222656 6.691406 L 6.199219 6.339844 L 6.164062 6.339844 C 6.15625 6.214844 6.34375 5.65625 6.332031 5.496094 C 6.285156 5.304688 6.386719 4.945312 6.398438 4.621094 C 6.84375 4.589844 7.226562 4.5625 7.488281 4.578125 C 7.519531 4.574219 7.582031 4.570312 7.613281 4.570312 C 8.0625 4.539062 8.933594 4.152344 9.535156 4.015625 C 9.75 3.871094 10.128906 3.78125 10.378906 3.667969 C 10.925781 3.273438 11.113281 3.648438 12.332031 2.695312 C 12.910156 2.265625 14.230469 1.402344 14.546875 0.835938 C 15.113281 0.25 15.609375 -0.460938 15.71875 -0.726562 C 16.027344 -1.359375 16.210938 -1.980469 16.328125 -3.015625 C 16.355469 -3.117188 16.375 -3.246094 16.335938 -3.339844 C 16.386719 -3.566406 16.4375 -3.765625 16.453125 -3.988281 L 16.5 -4.21875 C 16.261719 -4.394531 16.453125 -4.890625 16.351562 -5.429688 L 16.378906 -5.460938 C 16.402344 -5.59375 16.207031 -5.640625 16.269531 -6.097656 C 16.230469 -6.222656 16.222656 -6.316406 16.222656 -6.351562 C 16.246094 -6.449219 16.378906 -6.394531 16.402344 -6.523438 C 16.398438 -6.554688 16.050781 -7.847656 15.816406 -8.441406 C 15.730469 -8.757812 15.613281 -9.070312 15.402344 -9.28125 C 15.128906 -9.550781 14.1875 -10.574219 14.101562 -10.890625 C 14.148438 -11.117188 13.132812 -11.847656 12.914062 -12.25 C 12.417969 -12.921875 9.847656 -14.28125 9.234375 -14.753906 C 7.617188 -15.378906 7.378906 -16.003906 7.375 -16.066406 C 7.402344 -16.132812 7.433594 -16.136719 7.433594 -16.167969 Z M 7.433594 -16.167969 "/></g></g></g><g fill="#1e1919" fill-opacity="1"><g transform="translate(101.661274, 173.412839)"><g><path d="M 20.472656 -6.828125 C 20.5 -6.988281 20.253906 -7.050781 20.335938 -7.621094 C 20.285156 -7.777344 20.277344 -7.894531 20.273438 -7.9375 C 20.304688 -8.058594 20.46875 -7.992188 20.5 -8.152344 C 20.496094 -8.191406 20.058594 -9.808594 19.765625 -10.550781 C 19.660156 -10.945312 19.511719 -11.335938 19.25 -11.597656 C 18.90625 -11.933594 17.730469 -13.214844 17.625 -13.609375 C 17.683594 -13.894531 16.414062 -14.808594 16.136719 -15.3125 C 15.515625 -16.152344 12.304688 -17.851562 11.542969 -18.4375 C 9.519531 -19.21875 9.222656 -20 9.21875 -20.082031 C 9.253906 -20.164062 9.292969 -20.167969 9.289062 -20.207031 C 9.316406 -20.367188 8.613281 -20.679688 8.496094 -21.195312 L 8.285156 -21.339844 C 8.199219 -21.453125 7.167969 -21.824219 6.847656 -22.925781 C 6.523438 -23.542969 6.4375 -24.21875 6.480469 -24.746094 C 6.539062 -25.03125 6.601562 -25.273438 6.757812 -25.367188 L 6.984375 -25.542969 C 7.089844 -25.75 8.078125 -26.542969 8.382812 -26.804688 C 8.699219 -27.992188 9.847656 -29.359375 12.644531 -29.554688 C 13.042969 -29.582031 13.484375 -29.574219 13.925781 -29.566406 C 14.242188 -29.628906 14.484375 -29.644531 14.722656 -29.664062 C 15.160156 -29.695312 16.289062 -29.652344 16.59375 -29.3125 C 16.589844 -29.351562 16.914062 -29.335938 16.996094 -29.300781 C 17.285156 -29.160156 17.789062 -27.710938 17.613281 -26.253906 C 17.316406 -24.1875 16.070312 -23.09375 14.710938 -22.996094 C 14.511719 -22.984375 14.351562 -22.972656 14.148438 -23 C 12.855469 -23.148438 13.980469 -25.394531 12.886719 -25.519531 C 12.484375 -25.570312 12.152344 -25.707031 11.953125 -25.691406 C 11.753906 -25.679688 11.644531 -25.511719 11.5625 -24.941406 C 11.378906 -23.605469 12.496094 -22 14.359375 -21.769531 C 14.84375 -21.683594 15.207031 -21.667969 15.527344 -21.691406 C 15.964844 -21.722656 16.355469 -21.871094 17.046875 -22.320312 L 17.242188 -22.414062 C 17.503906 -22.714844 17.679688 -23.046875 17.894531 -23.421875 C 17.894531 -23.421875 17.9375 -23.386719 17.976562 -23.390625 C 18.140625 -23.359375 18.246094 -23.570312 18.269531 -23.769531 L 18.261719 -23.890625 C 18.320312 -24.175781 18.78125 -24.488281 18.78125 -24.488281 C 18.816406 -24.574219 18.851562 -24.65625 18.84375 -24.734375 C 18.871094 -24.898438 18.722656 -24.765625 18.75 -24.929688 C 18.804688 -25.292969 18.949219 -24.984375 19.011719 -25.75 L 19.34375 -27.339844 C 19.464844 -28.472656 19.050781 -29.769531 18.601562 -30.457031 C 18.277344 -31.640625 17.835938 -32.171875 17.835938 -32.210938 C 17.867188 -32.332031 17.734375 -32.484375 17.65625 -32.480469 L 17.472656 -32.789062 C 17.5 -32.949219 16.601562 -33.730469 16.511719 -33.882812 C 16.371094 -34.15625 15.332031 -34.683594 13.914062 -34.863281 C 13.347656 -34.902344 12.742188 -34.980469 12.183594 -34.941406 L 11.90625 -34.84375 C 11.867188 -34.839844 11.789062 -34.835938 11.746094 -34.832031 C 9.992188 -34.707031 7.785156 -34.109375 6.324219 -33.203125 L 6.128906 -33.109375 C 5.511719 -32.746094 4.941406 -32.304688 4.378906 -31.742188 C 3.65625 -31.207031 2.898438 -30.550781 2.566406 -30.128906 C 2.050781 -29.488281 1.753906 -28.546875 1.75 -28.625 C 1.546875 -28.652344 1.390625 -28.039062 1.363281 -27.835938 C 1.339844 -27.632812 1.347656 -27.472656 1.4375 -27.359375 L 1.511719 -27.445312 C 1.554688 -27.40625 1.5625 -27.285156 1.5 -27.042969 C 1.546875 -26.925781 1.558594 -26.804688 1.566406 -26.683594 C 1.503906 -26.398438 1.085938 -26.652344 1.039062 -26.167969 C 1.007812 -26.082031 1.011719 -26.003906 1.011719 -26.003906 C 1.011719 -26.003906 1.003906 -26.125 0.921875 -26.117188 C 0.878906 -26.15625 0.847656 -26.070312 0.816406 -25.949219 C 0.738281 -25.34375 1.191406 -24.050781 1.394531 -24.023438 C 1.515625 -23.992188 1.578125 -24.238281 1.613281 -24.320312 C 1.582031 -24.195312 1.933594 -22.054688 2.042969 -21.621094 C 2.011719 -21.5 2.0625 -21.339844 1.996094 -21.175781 C 2.164062 -20.464844 3.875 -18.457031 4.316406 -17.847656 L 4.609375 -17.707031 C 5.207031 -17.1875 6.53125 -16.640625 6.949219 -16.425781 C 7.691406 -16.117188 7.714844 -15.800781 8.339844 -15.480469 C 9.355469 -14.710938 9.625 -14.328125 10.480469 -13.585938 C 11.613281 -12.863281 12.183594 -12.179688 12.550781 -11.566406 C 13.699219 -10.644531 14.097656 -8.984375 13.9375 -7.808594 C 13.785156 -6.59375 13.160156 -5.1875 12.183594 -3.710938 C 11.835938 -2.925781 11.648438 -1.625 10.648438 -0.992188 C 9.917969 -0.539062 9.066406 -0.078125 8.320312 0.132812 L 7.777344 0.414062 C 7.578125 0.46875 7.148438 0.617188 6.871094 0.679688 L 6.242188 0.84375 L 5.875 0.789062 C 5.753906 0.757812 5.605469 0.929688 5.210938 1.035156 L 4.390625 1.335938 C 3.695312 1.183594 2.808594 1.125 2.183594 0.808594 C 2.144531 0.8125 2.066406 0.816406 2.023438 0.820312 C 1.824219 0.835938 1.703125 0.804688 1.703125 0.804688 C 0.851562 0.703125 0.105469 0.355469 -0.0546875 -0.757812 C 0.0507812 -1.527344 -0.320312 -1.140625 -0.0976562 -3.085938 C 0.0820312 -4.542969 1.839844 -5.1875 1.921875 -5.753906 C 1.90625 -5.957031 2.773438 -6.21875 2.792969 -6.460938 C 2.839844 -6.945312 3.355469 -7.019531 3.738281 -7.328125 C 3.785156 -7.773438 3.160156 -8.089844 2.554688 -8.128906 C 2.355469 -8.15625 2.113281 -8.179688 1.910156 -8.164062 C 1.273438 -8.117188 0.691406 -7.796875 -0.167969 -6.933594 C -1.039062 -5.625 -1.441406 -4.472656 -1.703125 -2.527344 C -2.011719 -0.0585938 -1.457031 2.671875 0.617188 4.210938 C 1.976562 5.238281 3.492188 5.652344 4.300781 5.757812 C 6.125 5.988281 8.351562 5.710938 9.355469 5.722656 C 9.394531 5.71875 9.476562 5.710938 9.515625 5.710938 C 10.074219 5.671875 11.164062 5.191406 11.914062 5.019531 C 12.183594 4.839844 12.65625 4.726562 12.96875 4.582031 C 13.65625 4.09375 13.890625 4.558594 15.410156 3.367188 C 16.136719 2.832031 17.785156 1.753906 18.179688 1.042969 C 18.890625 0.308594 19.507812 -0.578125 19.644531 -0.90625 C 20.03125 -1.695312 20.257812 -2.476562 20.40625 -3.769531 C 20.4375 -3.894531 20.46875 -4.054688 20.417969 -4.171875 C 20.480469 -4.457031 20.542969 -4.703125 20.5625 -4.984375 L 20.621094 -5.269531 C 20.324219 -5.492188 20.5625 -6.109375 20.433594 -6.785156 Z M 20.472656 -6.828125 "/></g></g></g><g fill="#1e1919" fill-opacity="1"><g transform="translate(125.5803, 171.721856)"><g><path d="M -2.800781 0.117188 C -2.578125 -0.140625 -2.367188 -0.554688 -2.191406 -0.929688 L -0.613281 -4.132812 C -0.367188 -4.628906 -0.078125 -5.050781 0.296875 -5.480469 L 0.367188 -5.605469 C 0.664062 -5.949219 1.144531 -6.503906 1.636719 -6.941406 C 2.0625 -7.734375 2.496094 -8.40625 3.003906 -9.164062 C 3.371094 -9.671875 3.652344 -10.253906 4.054688 -10.804688 C 5.046875 -10.953125 6.679688 -11.109375 7.714844 -11.222656 L 10.945312 -12.132812 C 11.058594 -12.222656 11.179688 -12.230469 11.296875 -12.238281 C 11.460938 -12.210938 11.625 -12.183594 11.667969 -12.105469 C 11.6875 -11.867188 11.566406 -11.253906 11.429688 -10.363281 C 11.210938 -8.339844 11.109375 -6.367188 11.136719 -4.320312 C 11.152344 -4.082031 11.097656 -3.714844 11.089844 -3.273438 C 10.984375 -2.503906 10.886719 -1.574219 10.914062 -1.214844 C 10.921875 -1.09375 10.96875 -0.976562 11.019531 -0.859375 L 11.1875 -0.148438 C 11.3125 1.570312 11.726562 3.464844 12.324219 5.109375 L 12.515625 5.539062 C 12.6875 5.6875 12.863281 5.953125 13.085938 6.261719 L 13.714844 7.179688 C 13.941406 7.523438 14.164062 7.871094 14.382812 8.09375 C 14.824219 9.269531 15.527344 9.539062 16.445312 9.476562 C 16.726562 9.457031 17.042969 9.394531 17.359375 9.332031 L 17.914062 9.210938 C 17.992188 9.207031 18.070312 9.160156 18.1875 9.109375 C 18.378906 9.015625 18.738281 8.953125 18.847656 8.824219 C 18.914062 8.054688 18.964844 7.652344 18.949219 6.847656 C 18.980469 6.726562 18.96875 6.566406 18.957031 6.367188 C 18.746094 6.222656 18.652344 6.027344 18.632812 5.746094 C 18.515625 5.234375 18.632812 4.625 18.5 3.871094 L 18.371094 3.195312 C 18.265625 2.84375 18.117188 2.453125 18.019531 2.21875 C 17.855469 1.585938 17.722656 0.875 17.660156 -0.0429688 C 17.605469 -0.804688 17.585938 -1.644531 17.574219 -2.40625 C 17.507812 -2.761719 17.523438 -3.125 17.539062 -3.449219 C 17.523438 -3.648438 17.515625 -3.808594 17.539062 -4.011719 C 17.585938 -5.058594 17.191406 -6.074219 17.496094 -7.460938 C 17.679688 -7.710938 17.570312 -8.148438 17.558594 -8.304688 C 17.519531 -9.949219 17.546875 -11.277344 17.632812 -12.367188 C 17.726562 -13.296875 17.859375 -13.667969 18.167969 -13.847656 L 18.722656 -14.53125 L 19.421875 -14.859375 C 20.050781 -15.066406 20.4375 -15.253906 20.667969 -15.429688 C 20.890625 -15.6875 20.992188 -15.933594 20.976562 -16.136719 C 20.960938 -16.375 20.695312 -17.320312 20.328125 -17.375 L 19.339844 -17.144531 L 18.800781 -16.824219 C 18.210938 -16.660156 18.648438 -16.691406 18.171875 -16.660156 C 18.152344 -16.9375 18.210938 -17.222656 18.261719 -17.628906 C 18.417969 -18.84375 18.609375 -20.101562 18.800781 -21.359375 L 18.613281 -22.351562 C 18.476562 -23.105469 18.34375 -23.855469 18.171875 -24.566406 C 18.285156 -25.257812 18.316406 -25.941406 18.390625 -26.628906 C 18.433594 -27.113281 18.519531 -27.082031 18.59375 -27.6875 C 18.648438 -28.65625 18.683594 -29.261719 18.558594 -29.894531 C 18.367188 -30.363281 18.136719 -30.785156 17.828125 -31.167969 C 17.648438 -31.433594 17.382812 -31.777344 17.125 -32 C 16.523438 -32.597656 15.410156 -33.566406 14.453125 -33.496094 C 14.371094 -33.492188 14.195312 -33.71875 14.117188 -33.675781 C 13.839844 -33.613281 13.570312 -33.476562 13.425781 -33.265625 L 13.148438 -32.601562 C 13.042969 -32.394531 12.980469 -32.148438 12.882812 -31.859375 C 12.230469 -30.289062 10.964844 -28.3125 9.234375 -25.542969 C 8.503906 -24.484375 7.886719 -23.597656 7.296875 -22.835938 L 6.574219 -21.699219 C 6.160156 -20.1875 5.292969 -18.839844 4.667969 -17.429688 C 3.914062 -15.609375 2.917969 -13.816406 2.652344 -13.03125 C 2.199219 -12.640625 0.96875 -12.390625 0.332031 -12.347656 C 0.210938 -12.339844 0.128906 -12.371094 0.0507812 -12.367188 C -0.375 -12.097656 -1.40625 -11.382812 -1.371094 -10.863281 C -1.402344 -10.738281 -1.3125 -10.625 -1.1875 -10.554688 C -1.171875 -10.355469 -0.839844 -10.175781 -0.390625 -10.089844 C -0.03125 -10.074219 0.328125 -10.097656 0.6875 -10.125 C 0.402344 -9.621094 -0.015625 -8.75 -0.652344 -7.539062 L -1.433594 -6.082031 C -1.886719 -5.125 -2.378906 -4.128906 -2.878906 -3.25 L -3.875 -1.414062 L -4.671875 -0.230469 C -5.105469 0.441406 -5.617188 1.160156 -6.09375 1.796875 L -6.429688 2.179688 L -6.585938 2.792969 C -6.621094 2.875 -6.695312 2.960938 -6.6875 3.042969 C -6.6875 3.082031 -6.726562 3.085938 -6.722656 3.125 C -6.824219 3.414062 -6.847656 3.65625 -6.871094 3.859375 C -6.871094 3.898438 -6.871094 3.898438 -6.828125 3.933594 C -6.804688 4.253906 -6.710938 4.449219 -6.429688 4.46875 C -6.265625 4.496094 -5.917969 4.3125 -5.464844 3.917969 L -5.421875 3.914062 C -5.15625 3.738281 -5.007812 3.527344 -4.785156 3.308594 C -4.53125 2.929688 -4.273438 2.589844 -4.011719 2.289062 L -3.699219 1.625 C -3.410156 1.164062 -3.164062 0.664062 -2.800781 0.117188 Z M 8.183594 -13.707031 C 8.140625 -13.742188 8.0625 -13.738281 7.980469 -13.730469 C 7.460938 -13.695312 6.453125 -13.179688 5.816406 -13.136719 C 5.734375 -13.128906 5.65625 -13.125 5.617188 -13.121094 C 5.496094 -13.113281 5.375 -13.105469 5.335938 -13.101562 C 5.320312 -13.34375 5.453125 -13.710938 5.660156 -14.167969 C 6.207031 -15.53125 6.898438 -17.105469 7.449219 -18.429688 L 8.214844 -20.050781 C 8.429688 -20.464844 8.632812 -20.960938 8.765625 -21.375 C 8.859375 -21.742188 9.003906 -21.992188 9.152344 -22.164062 C 9.328125 -22.496094 9.503906 -22.832031 9.644531 -23.160156 C 9.820312 -23.496094 9.953125 -23.90625 10.125 -24.28125 L 10.539062 -25.230469 C 10.714844 -25.605469 11.042969 -26.070312 11.265625 -26.328125 C 11.410156 -26.539062 11.683594 -27.199219 11.867188 -27.453125 C 12.195312 -27.957031 12.695312 -28.796875 13.015625 -29.382812 C 13.0625 -29.304688 13.1875 -29.234375 13.234375 -29.117188 C 13.324219 -28.441406 13.304688 -27.59375 13.289062 -26.671875 C 13.238281 -26.226562 13.207031 -25.542969 13.101562 -24.769531 C 12.847656 -22.707031 12.417969 -19.664062 12.183594 -17.320312 C 12.21875 -17.363281 12.136719 -16.835938 12.09375 -16.308594 C 12.050781 -15.785156 12.042969 -15.304688 12.039062 -14.820312 L 11.175781 -14.519531 C 10.359375 -14.179688 9.492188 -13.917969 8.621094 -13.734375 Z M 8.183594 -13.707031 "/></g></g></g><g fill="#1e1919" fill-opacity="1"><g transform="translate(147.622532, 170.163555)"><g><path d="M 15.5625 -17.757812 C 15.617188 -17.5625 15.5625 -17.238281 15.46875 -16.828125 C 15.195312 -15.605469 14.851562 -14.214844 14.535156 -12.988281 C 14.332031 -12.492188 14.246094 -11.964844 14.074219 -11.550781 C 13.945312 -11.140625 13.851562 -10.734375 13.839844 -10.332031 C 13.824219 -10.007812 13.679688 -9.796875 13.609375 -9.632812 C 13.472656 -9.300781 13.371094 -9.015625 13.3125 -8.730469 C 13.171875 -8.4375 13.121094 -8.03125 13.023438 -7.703125 L 12.804688 -6.847656 C 12.707031 -6.519531 12.414062 -6.097656 12.3125 -5.847656 C 12.167969 -5.636719 12.046875 -5.066406 11.941406 -4.820312 C 11.695312 -4.320312 11.386719 -3.574219 11.144531 -3.035156 C 11.0625 -3.070312 10.9375 -3.140625 10.890625 -3.21875 C 10.332031 -4.34375 10.15625 -5.695312 10.066406 -6.933594 C 9.859375 -8.726562 9.675781 -11.320312 9.371094 -13.386719 C 9.375 -13.308594 9.300781 -13.785156 9.230469 -14.222656 C 9.199219 -14.660156 9.050781 -15.089844 8.980469 -15.488281 C 9.382812 -17.765625 8.941406 -17.734375 8.8125 -17.84375 C 8.71875 -18.039062 8.679688 -18.597656 8.667969 -19.320312 C 8.574219 -20.117188 8.40625 -21.347656 8.152344 -22.65625 L 7.621094 -24.503906 C 7.566406 -24.699219 7.542969 -25.019531 7.476562 -25.417969 C 7.390625 -26.054688 7.292969 -26.847656 7.191406 -27.164062 L 7.011719 -27.429688 C 6.925781 -27.546875 6.785156 -27.816406 6.691406 -28.011719 L 6.210938 -29.140625 C 5.886719 -29.71875 5.5625 -30.339844 5.199219 -30.917969 C 4.960938 -31.460938 4.691406 -31.882812 4.339844 -32.300781 C 4.289062 -32.457031 4.160156 -32.570312 4.03125 -32.679688 C 3.863281 -32.789062 3.609375 -32.972656 3.3125 -33.230469 L 1.609375 -34.597656 C 1.03125 -35.398438 0.332031 -35.628906 -0.425781 -35.574219 C -0.546875 -35.566406 -0.707031 -35.554688 -0.863281 -35.503906 C -1.183594 -35.484375 -1.496094 -35.378906 -1.773438 -35.28125 L -2.324219 -35.121094 C -2.402344 -35.117188 -2.480469 -35.070312 -2.59375 -34.980469 C -2.832031 -34.925781 -3.101562 -34.785156 -3.171875 -34.660156 C -3.128906 -34.019531 -3.101562 -33.660156 -2.894531 -32.992188 C -2.886719 -32.875 -2.875 -32.714844 -2.824219 -32.554688 C -2.574219 -32.453125 -2.445312 -32.34375 -2.308594 -32.109375 C -2.117188 -31.644531 -2.082031 -31.164062 -1.796875 -30.5 L -0.9375 -29.15625 C -0.617188 -28.617188 -0.0117188 -27.417969 0.0351562 -26.777344 C 0.226562 -26.308594 0.425781 -25.800781 0.539062 -25.328125 C 0.679688 -25.015625 0.738281 -24.738281 0.800781 -24.421875 C 0.855469 -24.265625 0.90625 -24.109375 0.917969 -23.949219 C 1.097656 -23.078125 1.714844 -22.28125 1.722656 -21.074219 C 1.621094 -20.789062 1.804688 -20.480469 1.855469 -20.324219 C 2.234375 -18.945312 2.515625 -17.800781 2.621094 -16.882812 C 2.757812 -16.089844 2.703125 -15.726562 2.394531 -15.542969 C 2.308594 -14.453125 3.140625 -14.070312 3.003906 -13.179688 C 3.097656 -12.945312 3.078125 -12.660156 3.140625 -12.34375 C 3.257812 -11.269531 3.292969 -10.1875 3.332031 -9.105469 L 3.828125 -8.300781 L 4.71875 -6.476562 L 4.964844 -4.726562 C 5.035156 -4.289062 4.953125 -4.324219 4.988281 -3.804688 C 5.167969 -2.976562 5.207031 -2.414062 5.523438 -1.914062 C 5.792969 -1.535156 6.136719 -1.195312 6.515625 -0.941406 C 7.5 -0.0898438 9.203125 0.714844 10.519531 0.621094 C 10.601562 0.617188 10.851562 0.757812 10.890625 0.714844 C 11.164062 0.65625 11.398438 0.519531 11.542969 0.308594 C 11.609375 0.101562 11.679688 -0.0234375 11.699219 -0.304688 C 11.769531 -0.472656 11.792969 -0.714844 11.855469 -0.957031 C 12.511719 -3.574219 14.242188 -6.90625 15.636719 -9.335938 C 15.816406 -9.628906 15.996094 -9.960938 16.167969 -10.335938 C 16.277344 -11.667969 16.871094 -12.914062 17.222656 -14.183594 C 19.449219 -19.597656 20.601562 -23.132812 20.667969 -23.378906 L 21.066406 -24.53125 C 21.363281 -25.433594 21.660156 -26.339844 21.96875 -27.125 L 22.574219 -28.773438 C 22.75 -29.105469 22.886719 -29.4375 23.066406 -29.730469 L 24.203125 -31.816406 L 24.460938 -32.15625 C 24.488281 -32.359375 24.515625 -32.523438 24.5 -32.722656 C 24.496094 -32.800781 24.570312 -32.886719 24.566406 -32.925781 C 24.523438 -32.964844 24.605469 -32.96875 24.5625 -33.007812 C 24.585938 -33.25 24.570312 -33.449219 24.558594 -33.648438 L 24.515625 -33.6875 C 24.375 -33.957031 24.242188 -34.148438 23.960938 -34.128906 C 23.761719 -34.113281 23.457031 -33.894531 23.117188 -33.546875 L 23.078125 -33.542969 C 23.117188 -33.546875 23.117188 -33.546875 23.042969 -33.503906 C 22.8125 -33.324219 22.707031 -33.117188 22.523438 -32.902344 C 22.34375 -32.570312 22.128906 -32.234375 21.945312 -31.980469 C 21.878906 -31.773438 21.769531 -31.605469 21.746094 -31.363281 C 21.539062 -30.90625 21.410156 -30.457031 21.164062 -29.957031 C 20.9375 -29.742188 20.847656 -29.332031 20.707031 -29.042969 L 20.421875 -27.976562 L 20.347656 -27.890625 C 20.15625 -27.195312 19.992188 -26.664062 19.792969 -26.085938 C 19.621094 -25.671875 19.410156 -25.257812 19.117188 -24.835938 L 19.125 -24.714844 C 18.867188 -24.414062 18.503906 -23.867188 18.09375 -23.4375 C 17.820312 -22.734375 17.503906 -22.113281 17.152344 -21.40625 C 16.863281 -20.941406 16.703125 -20.410156 16.417969 -19.867188 Z M 15.5625 -17.757812 "/></g></g></g><g fill="#1e1919" fill-opacity="1"><g transform="translate(168.147368, 168.712528)"><g><path d="M -2.800781 0.117188 C -2.578125 -0.140625 -2.367188 -0.554688 -2.191406 -0.929688 L -0.613281 -4.132812 C -0.367188 -4.628906 -0.078125 -5.050781 0.296875 -5.480469 L 0.367188 -5.605469 C 0.664062 -5.949219 1.144531 -6.503906 1.636719 -6.941406 C 2.0625 -7.734375 2.496094 -8.40625 3.003906 -9.164062 C 3.371094 -9.671875 3.652344 -10.253906 4.054688 -10.804688 C 5.046875 -10.953125 6.679688 -11.109375 7.714844 -11.222656 L 10.945312 -12.132812 C 11.058594 -12.222656 11.179688 -12.230469 11.296875 -12.238281 C 11.460938 -12.210938 11.625 -12.183594 11.667969 -12.105469 C 11.6875 -11.867188 11.566406 -11.253906 11.429688 -10.363281 C 11.210938 -8.339844 11.109375 -6.367188 11.136719 -4.320312 C 11.152344 -4.082031 11.097656 -3.714844 11.089844 -3.273438 C 10.984375 -2.503906 10.886719 -1.574219 10.914062 -1.214844 C 10.921875 -1.09375 10.96875 -0.976562 11.019531 -0.859375 L 11.1875 -0.148438 C 11.3125 1.570312 11.726562 3.464844 12.324219 5.109375 L 12.515625 5.539062 C 12.6875 5.6875 12.863281 5.953125 13.085938 6.261719 L 13.714844 7.179688 C 13.941406 7.523438 14.164062 7.871094 14.382812 8.09375 C 14.824219 9.269531 15.527344 9.539062 16.445312 9.476562 C 16.726562 9.457031 17.042969 9.394531 17.359375 9.332031 L 17.914062 9.210938 C 17.992188 9.207031 18.070312 9.160156 18.1875 9.109375 C 18.378906 9.015625 18.738281 8.953125 18.847656 8.824219 C 18.914062 8.054688 18.964844 7.652344 18.949219 6.847656 C 18.980469 6.726562 18.96875 6.566406 18.957031 6.367188 C 18.746094 6.222656 18.652344 6.027344 18.632812 5.746094 C 18.515625 5.234375 18.632812 4.625 18.5 3.871094 L 18.371094 3.195312 C 18.265625 2.84375 18.117188 2.453125 18.019531 2.21875 C 17.855469 1.585938 17.722656 0.875 17.660156 -0.0429688 C 17.605469 -0.804688 17.585938 -1.644531 17.574219 -2.40625 C 17.507812 -2.761719 17.523438 -3.125 17.539062 -3.449219 C 17.523438 -3.648438 17.515625 -3.808594 17.539062 -4.011719 C 17.585938 -5.058594 17.191406 -6.074219 17.496094 -7.460938 C 17.679688 -7.710938 17.570312 -8.148438 17.558594 -8.304688 C 17.519531 -9.949219 17.546875 -11.277344 17.632812 -12.367188 C 17.726562 -13.296875 17.859375 -13.667969 18.167969 -13.847656 L 18.722656 -14.53125 L 19.421875 -14.859375 C 20.050781 -15.066406 20.4375 -15.253906 20.667969 -15.429688 C 20.890625 -15.6875 20.992188 -15.933594 20.976562 -16.136719 C 20.960938 -16.375 20.695312 -17.320312 20.328125 -17.375 L 19.339844 -17.144531 L 18.800781 -16.824219 C 18.210938 -16.660156 18.648438 -16.691406 18.171875 -16.660156 C 18.152344 -16.9375 18.210938 -17.222656 18.261719 -17.628906 C 18.417969 -18.84375 18.609375 -20.101562 18.800781 -21.359375 L 18.613281 -22.351562 C 18.476562 -23.105469 18.34375 -23.855469 18.171875 -24.566406 C 18.285156 -25.257812 18.316406 -25.941406 18.390625 -26.628906 C 18.433594 -27.113281 18.519531 -27.082031 18.59375 -27.6875 C 18.648438 -28.65625 18.683594 -29.261719 18.558594 -29.894531 C 18.367188 -30.363281 18.136719 -30.785156 17.828125 -31.167969 C 17.648438 -31.433594 17.382812 -31.777344 17.125 -32 C 16.523438 -32.597656 15.410156 -33.566406 14.453125 -33.496094 C 14.371094 -33.492188 14.195312 -33.71875 14.117188 -33.675781 C 13.839844 -33.613281 13.570312 -33.476562 13.425781 -33.265625 L 13.148438 -32.601562 C 13.042969 -32.394531 12.980469 -32.148438 12.882812 -31.859375 C 12.230469 -30.289062 10.964844 -28.3125 9.234375 -25.542969 C 8.503906 -24.484375 7.886719 -23.597656 7.296875 -22.835938 L 6.574219 -21.699219 C 6.160156 -20.1875 5.292969 -18.839844 4.667969 -17.429688 C 3.914062 -15.609375 2.917969 -13.816406 2.652344 -13.03125 C 2.199219 -12.640625 0.96875 -12.390625 0.332031 -12.347656 C 0.210938 -12.339844 0.128906 -12.371094 0.0507812 -12.367188 C -0.375 -12.097656 -1.40625 -11.382812 -1.371094 -10.863281 C -1.402344 -10.738281 -1.3125 -10.625 -1.1875 -10.554688 C -1.171875 -10.355469 -0.839844 -10.175781 -0.390625 -10.089844 C -0.03125 -10.074219 0.328125 -10.097656 0.6875 -10.125 C 0.402344 -9.621094 -0.015625 -8.75 -0.652344 -7.539062 L -1.433594 -6.082031 C -1.886719 -5.125 -2.378906 -4.128906 -2.878906 -3.25 L -3.875 -1.414062 L -4.671875 -0.230469 C -5.105469 0.441406 -5.617188 1.160156 -6.09375 1.796875 L -6.429688 2.179688 L -6.585938 2.792969 C -6.621094 2.875 -6.695312 2.960938 -6.6875 3.042969 C -6.6875 3.082031 -6.726562 3.085938 -6.722656 3.125 C -6.824219 3.414062 -6.847656 3.65625 -6.871094 3.859375 C -6.871094 3.898438 -6.871094 3.898438 -6.828125 3.933594 C -6.804688 4.253906 -6.710938 4.449219 -6.429688 4.46875 C -6.265625 4.496094 -5.917969 4.3125 -5.464844 3.917969 L -5.421875 3.914062 C -5.15625 3.738281 -5.007812 3.527344 -4.785156 3.308594 C -4.53125 2.929688 -4.273438 2.589844 -4.011719 2.289062 L -3.699219 1.625 C -3.410156 1.164062 -3.164062 0.664062 -2.800781 0.117188 Z M 8.183594 -13.707031 C 8.140625 -13.742188 8.0625 -13.738281 7.980469 -13.730469 C 7.460938 -13.695312 6.453125 -13.179688 5.816406 -13.136719 C 5.734375 -13.128906 5.65625 -13.125 5.617188 -13.121094 C 5.496094 -13.113281 5.375 -13.105469 5.335938 -13.101562 C 5.320312 -13.34375 5.453125 -13.710938 5.660156 -14.167969 C 6.207031 -15.53125 6.898438 -17.105469 7.449219 -18.429688 L 8.214844 -20.050781 C 8.429688 -20.464844 8.632812 -20.960938 8.765625 -21.375 C 8.859375 -21.742188 9.003906 -21.992188 9.152344 -22.164062 C 9.328125 -22.496094 9.503906 -22.832031 9.644531 -23.160156 C 9.820312 -23.496094 9.953125 -23.90625 10.125 -24.28125 L 10.539062 -25.230469 C 10.714844 -25.605469 11.042969 -26.070312 11.265625 -26.328125 C 11.410156 -26.539062 11.683594 -27.199219 11.867188 -27.453125 C 12.195312 -27.957031 12.695312 -28.796875 13.015625 -29.382812 C 13.0625 -29.304688 13.1875 -29.234375 13.234375 -29.117188 C 13.324219 -28.441406 13.304688 -27.59375 13.289062 -26.671875 C 13.238281 -26.226562 13.207031 -25.542969 13.101562 -24.769531 C 12.847656 -22.707031 12.417969 -19.664062 12.183594 -17.320312 C 12.21875 -17.363281 12.136719 -16.835938 12.09375 -16.308594 C 12.050781 -15.785156 12.042969 -15.304688 12.039062 -14.820312 L 11.175781 -14.519531 C 10.359375 -14.179688 9.492188 -13.917969 8.621094 -13.734375 Z M 8.183594 -13.707031 "/></g></g></g><g fill="#1e1919" fill-opacity="1"><g transform="translate(190.189601, 167.154227)"><g><path d="M 9.289062 -20.207031 C 9.316406 -20.367188 8.613281 -20.679688 8.496094 -21.195312 L 8.285156 -21.339844 C 8.199219 -21.453125 7.167969 -21.824219 6.847656 -22.925781 C 6.523438 -23.542969 6.4375 -24.21875 6.480469 -24.746094 C 6.539062 -25.03125 6.601562 -25.273438 6.757812 -25.367188 L 6.984375 -25.542969 C 7.089844 -25.75 8.078125 -26.542969 8.382812 -26.804688 C 8.699219 -27.992188 9.847656 -29.359375 12.644531 -29.554688 C 13.042969 -29.582031 13.484375 -29.574219 13.925781 -29.566406 C 14.242188 -29.628906 14.484375 -29.644531 14.722656 -29.664062 C 15.160156 -29.695312 16.289062 -29.652344 16.59375 -29.3125 C 16.589844 -29.351562 16.914062 -29.335938 16.996094 -29.300781 C 17.285156 -29.160156 17.789062 -27.710938 17.613281 -26.253906 C 17.316406 -24.1875 16.070312 -23.09375 14.710938 -22.996094 C 14.511719 -22.984375 14.351562 -22.972656 14.148438 -23 C 12.855469 -23.148438 13.980469 -25.394531 12.886719 -25.519531 C 12.484375 -25.570312 12.152344 -25.707031 11.953125 -25.691406 C 11.753906 -25.679688 11.644531 -25.511719 11.5625 -24.941406 C 11.378906 -23.605469 12.496094 -22 14.359375 -21.769531 C 14.84375 -21.683594 15.207031 -21.667969 15.527344 -21.691406 C 15.964844 -21.722656 16.355469 -21.871094 17.046875 -22.320312 L 17.242188 -22.414062 C 17.503906 -22.714844 17.679688 -23.046875 17.894531 -23.421875 C 17.894531 -23.421875 17.9375 -23.386719 17.976562 -23.390625 C 18.140625 -23.359375 18.246094 -23.570312 18.269531 -23.769531 L 18.261719 -23.890625 C 18.320312 -24.175781 18.78125 -24.488281 18.78125 -24.488281 C 18.816406 -24.574219 18.851562 -24.65625 18.84375 -24.734375 C 18.871094 -24.898438 18.722656 -24.765625 18.75 -24.929688 C 18.804688 -25.292969 18.949219 -24.984375 19.011719 -25.75 L 19.34375 -27.339844 C 19.464844 -28.472656 19.050781 -29.769531 18.601562 -30.457031 C 18.277344 -31.640625 17.835938 -32.171875 17.835938 -32.210938 C 17.867188 -32.332031 17.734375 -32.484375 17.65625 -32.480469 L 17.472656 -32.789062 C 17.5 -32.949219 16.601562 -33.730469 16.511719 -33.882812 C 16.371094 -34.15625 15.332031 -34.683594 13.914062 -34.863281 C 13.347656 -34.902344 12.742188 -34.980469 12.183594 -34.941406 L 11.90625 -34.84375 C 11.867188 -34.839844 11.789062 -34.835938 11.746094 -34.832031 C 9.992188 -34.707031 7.785156 -34.109375 6.324219 -33.203125 L 6.128906 -33.109375 C 5.511719 -32.746094 4.941406 -32.304688 4.378906 -31.742188 C 3.65625 -31.207031 2.898438 -30.550781 2.566406 -30.128906 C 2.050781 -29.488281 1.753906 -28.546875 1.75 -28.625 C 1.546875 -28.652344 1.390625 -28.039062 1.363281 -27.835938 C 1.339844 -27.632812 1.347656 -27.472656 1.4375 -27.359375 L 1.511719 -27.445312 C 1.554688 -27.40625 1.5625 -27.285156 1.5 -27.042969 C 1.546875 -26.925781 1.558594 -26.804688 1.566406 -26.683594 C 1.503906 -26.398438 1.085938 -26.652344 1.039062 -26.167969 C 1.007812 -26.082031 1.011719 -26.003906 1.011719 -26.003906 C 1.011719 -26.003906 1.003906 -26.125 0.921875 -26.117188 C 0.878906 -26.15625 0.847656 -26.070312 0.816406 -25.949219 C 0.738281 -25.34375 1.191406 -24.050781 1.394531 -24.023438 C 1.515625 -23.992188 1.578125 -24.238281 1.613281 -24.320312 C 1.582031 -24.195312 1.933594 -22.054688 2.042969 -21.621094 C 2.011719 -21.5 2.0625 -21.339844 1.996094 -21.175781 C 2.164062 -20.464844 3.875 -18.457031 4.316406 -17.847656 L 4.609375 -17.707031 C 5.207031 -17.1875 6.53125 -16.640625 6.949219 -16.425781 C 7.691406 -16.117188 7.714844 -15.800781 8.339844 -15.480469 C 9.355469 -14.710938 9.625 -14.328125 10.480469 -13.585938 C 11.613281 -12.863281 12.183594 -12.179688 12.550781 -11.566406 C 13.699219 -10.644531 14.097656 -8.984375 13.9375 -7.808594 C 13.785156 -6.59375 13.160156 -5.1875 12.183594 -3.710938 C 11.835938 -2.925781 11.648438 -1.625 10.648438 -0.992188 C 9.917969 -0.539062 9.066406 -0.078125 8.320312 0.132812 L 7.777344 0.414062 C 7.578125 0.46875 7.148438 0.617188 6.871094 0.679688 L 6.242188 0.84375 L 5.875 0.789062 C 5.753906 0.757812 5.605469 0.929688 5.210938 1.035156 L 4.390625 1.335938 C 3.695312 1.183594 2.808594 1.125 2.183594 0.808594 C 2.144531 0.8125 2.066406 0.816406 2.023438 0.820312 C 1.824219 0.835938 1.703125 0.804688 1.703125 0.804688 C 0.851562 0.703125 0.105469 0.355469 -0.0546875 -0.757812 C 0.0507812 -1.527344 -0.320312 -1.140625 -0.0976562 -3.085938 C 0.0820312 -4.542969 1.839844 -5.1875 1.921875 -5.753906 C 1.90625 -5.957031 2.773438 -6.21875 2.792969 -6.460938 C 2.839844 -6.945312 3.355469 -7.019531 3.738281 -7.328125 C 3.785156 -7.773438 3.160156 -8.089844 2.554688 -8.128906 C 2.355469 -8.15625 2.113281 -8.179688 1.910156 -8.164062 C 1.273438 -8.117188 0.691406 -7.796875 -0.167969 -6.933594 C -1.039062 -5.625 -1.441406 -4.472656 -1.703125 -2.527344 C -2.011719 -0.0585938 -1.457031 2.671875 0.617188 4.210938 C 2.316406 5.496094 3.945312 5.824219 5.992188 5.839844 C 5.964844 6.042969 5.980469 6.242188 5.914062 6.40625 C 5.960938 6.523438 5.96875 6.644531 5.976562 6.722656 C 6.039062 7.078125 5.824219 7.417969 5.898438 7.894531 C 5.753906 9.269531 5.664062 10.839844 5.449219 12.339844 C 4.976562 13.054688 5.296875 14.15625 5.894531 14.113281 C 6.175781 14.09375 6.480469 13.871094 6.804688 13.328125 C 7.066406 13.070312 8.285156 11.578125 8.859375 10.613281 C 8.898438 10.609375 8.9375 10.566406 8.9375 10.566406 C 9.136719 10.554688 9.164062 10.953125 9.222656 11.191406 C 9.367188 12.144531 9.367188 13.265625 9.441406 14.304688 C 9.019531 15.136719 9.289062 16.121094 9.726562 16.09375 C 10.046875 16.070312 10.492188 15.554688 10.867188 14.042969 C 11.171875 13.21875 11.273438 12.410156 11.496094 11.550781 L 11.484375 11.429688 C 11.464844 10.550781 11.367188 9.753906 11.269531 8.917969 C 11.214844 8.722656 11.101562 8.246094 10.730469 8.152344 C 10.3125 8.464844 8.832031 9.652344 8.652344 9.945312 L 7.324219 11.605469 C 7.207031 11.652344 7.128906 11.699219 7.136719 11.820312 C 7.117188 11.539062 7.335938 11.203125 7.601562 10.984375 L 7.476562 10.953125 L 7.46875 10.832031 C 7.398438 10.394531 7.570312 9.980469 7.617188 9.539062 C 7.789062 9.125 7.523438 8.78125 7.777344 8.363281 L 7.746094 7.921875 L 7.707031 7.925781 C 7.695312 7.765625 7.925781 7.066406 7.910156 6.867188 C 7.855469 6.628906 7.984375 6.179688 7.996094 5.777344 C 8.554688 5.738281 9.035156 5.703125 9.355469 5.722656 C 9.394531 5.71875 9.476562 5.710938 9.515625 5.710938 C 10.074219 5.671875 11.164062 5.191406 11.914062 5.019531 C 12.183594 4.839844 12.65625 4.726562 12.96875 4.582031 C 13.65625 4.09375 13.890625 4.558594 15.410156 3.367188 C 16.136719 2.832031 17.785156 1.753906 18.179688 1.042969 C 18.890625 0.308594 19.507812 -0.578125 19.644531 -0.90625 C 20.03125 -1.695312 20.257812 -2.476562 20.40625 -3.769531 C 20.4375 -3.894531 20.46875 -4.054688 20.417969 -4.171875 C 20.480469 -4.457031 20.542969 -4.703125 20.5625 -4.984375 L 20.621094 -5.269531 C 20.324219 -5.492188 20.5625 -6.109375 20.433594 -6.785156 L 20.472656 -6.828125 C 20.5 -6.988281 20.253906 -7.050781 20.335938 -7.621094 C 20.285156 -7.777344 20.277344 -7.894531 20.273438 -7.9375 C 20.304688 -8.058594 20.46875 -7.992188 20.5 -8.152344 C 20.496094 -8.191406 20.058594 -9.808594 19.765625 -10.550781 C 19.660156 -10.945312 19.511719 -11.335938 19.25 -11.597656 C 18.90625 -11.933594 17.730469 -13.214844 17.625 -13.609375 C 17.683594 -13.894531 16.414062 -14.808594 16.136719 -15.3125 C 15.515625 -16.152344 12.304688 -17.851562 11.542969 -18.4375 C 9.519531 -19.21875 9.222656 -20 9.21875 -20.082031 C 9.253906 -20.164062 9.292969 -20.167969 9.289062 -20.207031 Z M 9.289062 -20.207031 "/></g></g></g></svg>